<?xml version="1.0" encoding="utf-8"?>
<!-- Generator: Adobe Illustrator 17.1.0, SVG Export Plug-In . SVG Version: 6.00 Build 0)  -->
<!DOCTYPE svg PUBLIC "-//W3C//DTD SVG 1.1//EN" "http://www.w3.org/Graphics/SVG/1.1/DTD/svg11.dtd">
<svg version="1.1" id="Layer_1" xmlns="http://www.w3.org/2000/svg" xmlns:xlink="http://www.w3.org/1999/xlink" x="0px" y="0px"
	 viewBox="0 0 1244.8 388.5" enable-background="new 0 0 1244.8 388.5" xml:space="preserve">
<g>
	<g>
		<path fill="#FFFFFF" d="M718.8,167.8c-0.3-0.9-0.6-1.9-0.9-2.9l1-0.3c0.3,1,0.6,1.9,0.9,2.8L718.8,167.8z"/>
	</g>
	<g>
		<path fill="#FFFFFF" d="M715.5,155c-0.4-2-0.7-4-1-6.1l1-0.1c0.3,2.1,0.6,4.1,1,6L715.5,155z M713.5,138.8c-0.1-2-0.2-4.1-0.3-6.1
			l1,0c0.1,2,0.2,4.1,0.3,6.1L713.5,138.8z"/>
	</g>
	<g>
		<path fill="#FFFFFF" d="M585.2,234.3c-1.5,0-3-0.1-4.5-0.2l0.1-1c2,0.1,4,0.2,6.1,0.1l0,1C586.3,234.3,585.8,234.3,585.2,234.3z
			 M597.1,233.3l-0.2-1c2-0.3,4-0.8,5.9-1.3l0.2,1C601.1,232.5,599.1,232.9,597.1,233.3z M570.6,232.5c-2-0.5-4-1.2-5.8-2l0.4-0.9
			c1.8,0.8,3.8,1.4,5.7,2L570.6,232.5z M612.9,228.8l-0.4-0.9c1.9-0.8,3.8-1.6,5.6-2.5l0.4,0.9C616.7,227.2,614.8,228,612.9,228.8z
			 M555.8,225.5c-1.7-1.2-3.3-2.5-4.8-3.9l0.7-0.7c1.5,1.4,3.1,2.7,4.7,3.8L555.8,225.5z M627.3,220.9l-0.6-0.8
			c1.6-1.2,3.1-2.5,4.6-3.9l0.7,0.7C630.5,218.3,628.9,219.7,627.3,220.9z M544.2,213.9c-1.2-1.6-2.3-3.4-3.3-5.2l0.9-0.5
			c1,1.8,2.1,3.5,3.3,5.1L544.2,213.9z M639,209.5l-0.8-0.6c1.3-1.5,2.5-3.1,3.7-4.8l0.8,0.6C641.6,206.3,640.3,208,639,209.5z
			 M536.4,199.5c-0.7-1.9-1.5-3.8-2.1-5.8l1-0.3c0.6,2,1.3,3.9,2.1,5.7L536.4,199.5z M648.4,196.1l-0.9-0.5c1-1.7,2-3.5,2.9-5.3
			l0.9,0.5C650.3,192.5,649.4,194.3,648.4,196.1z M531.6,183.8c-0.4-1.9-0.8-4-1.2-6l1-0.2c0.4,2,0.8,4.1,1.2,6L531.6,183.8z
			 M655.6,181.4l-0.9-0.4c0.8-1.8,1.5-3.7,2.3-5.7l0.9,0.4C657.2,177.7,656.4,179.6,655.6,181.4z M529,167.7c-0.2-2-0.4-4-0.5-6.1
			l1-0.1c0.1,2.1,0.3,4.1,0.5,6.1L529,167.7z M661.4,166.1l-0.9-0.3c0.6-1.9,1.3-3.9,1.9-5.8l1,0.3
			C662.7,162.2,662.1,164.1,661.4,166.1z M666.2,150.4l-1-0.3c0.6-2,1.1-3.9,1.6-5.9l1,0.3C667.3,146.5,666.8,148.5,666.2,150.4z
			 M670.5,134.6l-1-0.3l1.5-5.9l1,0.3L670.5,134.6z M714.2,122.4l-1,0c0.1-2,0.2-4.1,0.3-6.1l1,0.1
			C714.4,118.4,714.3,120.4,714.2,122.4z M674.6,118.9l-1-0.3c0.6-2,1.1-4,1.7-5.9l1,0.3C675.7,114.9,675.2,116.8,674.6,118.9z
			 M715.6,106.2l-1-0.1c0.3-2,0.6-4.1,0.9-6.1l1,0.2C716.1,102.2,715.8,104.2,715.6,106.2z M679.4,103.2l-0.9-0.3
			c0.7-2.1,1.4-4,2.1-5.8l0.9,0.4C680.8,99.3,680.1,101.2,679.4,103.2z M778,100.5c-2,0-4.1-0.1-6.2-0.4l0.1-1
			c2,0.2,4.1,0.4,6.1,0.4L778,100.5z M788.3,99.6l-0.2-1c2-0.4,4-0.9,5.9-1.5l0.3,1C792.3,98.7,790.3,99.2,788.3,99.6z M761.8,98.2
			c-1.9-0.5-3.9-1.1-5.9-1.8l0.3-0.9c2,0.7,3.9,1.2,5.8,1.7L761.8,98.2z M803.6,93.8l-0.5-0.9c1.7-1,3.4-2.2,4.9-3.5l0.6,0.8
			C807,91.5,805.3,92.7,803.6,93.8z M746.4,92.7c-1.8-0.8-3.7-1.7-5.5-2.7l0.5-0.9c1.8,0.9,3.7,1.8,5.5,2.6L746.4,92.7z M718.4,90.2
			l-1-0.2c0.5-2,0.9-4,1.5-6l1,0.3C719.4,86.2,718.9,88.2,718.4,90.2z M685.8,88.4l-0.9-0.5c1.1-1.9,2.2-3.6,3.4-5.1l0.8,0.6
			C688,84.8,686.9,86.5,685.8,88.4z M731.9,85.1c-1-0.6-2-1.2-3-1.9c-0.7-0.5-1.5-0.9-2.2-1.4l0.5-0.9c0.7,0.4,1.5,0.9,2.2,1.4
			c1,0.6,2,1.2,3,1.8L731.9,85.1z M815.8,82.8l-0.8-0.6c1.2-1.6,2.4-3.3,3.4-5l0.9,0.5C818.2,79.5,817.1,81.2,815.8,82.8z
			 M717.7,77.3c-2-0.8-3.9-1.4-5.7-1.9l0.2-1c1.9,0.5,3.8,1.1,5.9,1.9L717.7,77.3z M696.6,76.8l-0.5-0.9c1.8-1,3.8-1.7,5.8-2l0.2,1
			C700.1,75.2,698.3,75.9,696.6,76.8z M722.8,74.6l-0.9-0.3c0.6-1.9,1.3-3.9,2-5.8l0.9,0.4C724.1,70.7,723.4,72.6,722.8,74.6z
			 M823.6,68.4l-0.9-0.3c0.7-1.9,1.2-3.9,1.6-5.8l1,0.2C824.9,64.5,824.3,66.5,823.6,68.4z M728.7,59.4l-0.9-0.4
			c0.8-1.9,1.7-3.7,2.6-5.5l0.9,0.4C730.4,55.7,729.5,57.6,728.7,59.4z M826.4,52.2h-1V52c0-2-0.1-4-0.4-5.8l1-0.1
			c0.3,1.9,0.4,3.9,0.4,6V52.2z M736.2,45l-0.9-0.5c0.4-0.7,0.8-1.4,1.3-2.1c0.6-1.1,1.3-2.1,2-3.1l0.8,0.6c-0.7,1-1.3,2-2,3.1
			C737,43.6,736.6,44.3,736.2,45z M821.8,36.8c-1-1.7-2.2-3.3-3.6-4.8l0.7-0.7c1.4,1.6,2.7,3.3,3.7,5L821.8,36.8z M745.8,32
			l-0.7-0.7c1.4-1.5,3-2.9,4.5-4.2l0.6,0.8C748.7,29.2,747.2,30.5,745.8,32z M810.6,25.4c-1.6-1.1-3.4-2.1-5.2-3l0.4-0.9
			c1.9,0.9,3.7,2,5.3,3.1L810.6,25.4z M758.6,22.3l-0.5-0.9c1.8-1,3.7-1.8,5.6-2.5l0.3,0.9C762.3,20.6,760.4,21.4,758.6,22.3z
			 M796,18.8c-1.9-0.5-3.9-1-5.9-1.3l0.2-1c2,0.3,4,0.8,6,1.3L796,18.8z M773.9,17.4l-0.1-1c2-0.3,4.1-0.5,6.2-0.5l0,1
			C777.9,16.9,775.9,17.1,773.9,17.4z"/>
	</g>
	<g>
		<path fill="#FFFFFF" d="M528,151c0-1,0-2,0-3l1,0c0,1,0,2,0,3L528,151z"/>
	</g>
</g>
<g>
	<g>
		<path fill="#FFFFFF" d="M413.5,198.7l-0.6-0.8c0.8-0.6,1.6-1.3,2.4-1.8l0.6,0.8C415.1,197.5,414.3,198.1,413.5,198.7z"/>
	</g>
	<g>
		<path fill="#FFFFFF" d="M397.3,225.1l-1-0.3c0.6-1.9,1.3-3.8,2-5.6l0.9,0.4C398.6,221.3,397.9,223.2,397.3,225.1z M403.5,210.7
			l-0.9-0.5c1-1.8,2.1-3.5,3.3-5l0.8,0.6C405.6,207.3,404.5,208.9,403.5,210.7z"/>
	</g>
	<g>
		<path fill="#FFFFFF" d="M192.2,388.5c-1.9-0.1-3.9-0.2-6-0.4l0.1-1c2,0.2,4,0.3,5.9,0.4L192.2,388.5z M202.1,388.2l-0.1-1
			c2-0.2,4-0.6,5.8-1l0.2,1C206.2,387.6,204.2,388,202.1,388.2z M176.3,386.8c-1.9-0.3-3.9-0.7-5.9-1.1l0.2-1c2,0.4,4,0.8,5.8,1.1
			L176.3,386.8z M217.3,383.2l-0.6-0.8c1.6-1.1,3.1-2.4,4.3-3.9l0.8,0.6C220.5,380.7,219,382.1,217.3,383.2z M489,379.5l0-1
			c1.9-0.1,3.9-0.3,5.8-0.6l0.2,1C493,379.2,490.9,379.4,489,379.5z M479,379c-2-0.3-3.9-0.8-5.9-1.3l0.3-1c1.9,0.5,3.8,1,5.7,1.3
			L479,379z M504.6,376.3l-0.4-0.9c1.8-0.7,3.6-1.5,5.4-2.4l0.5,0.9C508.3,374.8,506.4,375.6,504.6,376.3z M463.8,374
			c-1.8-0.9-3.5-1.9-5.2-2.9l0.5-0.8c1.7,1.1,3.4,2,5.1,2.9L463.8,374z M225.9,370l-1-0.2c0.3-1.7,0.5-3.6,0.5-5.5l0-0.3l1,0l0,0.3
			C226.4,366.3,226.2,368.2,225.9,370z M518.5,368.5l-0.6-0.8c1.6-1.2,3.1-2.5,4.5-3.8l0.7,0.7C521.6,366,520.1,367.3,518.5,368.5z
			 M450.5,365.2c-1.5-1.2-3.1-2.5-4.6-3.8l0.7-0.8c1.5,1.3,3,2.6,4.5,3.8L450.5,365.2z M529.6,357.1l-0.8-0.6c1.2-1.6,2.2-3.3,3-5
			l0.9,0.5C531.8,353.7,530.8,355.4,529.6,357.1z M438.7,354.6c-1.4-1.4-2.8-2.8-4.2-4.3l0.7-0.7c1.3,1.4,2.7,2.9,4.1,4.3
			L438.7,354.6z M224.1,354.3c-0.5-1.9-1-3.8-1.7-5.6l0.9-0.3c0.7,1.9,1.3,3.8,1.7,5.7L224.1,354.3z M406.1,351.2c-1,0-2-0.1-3-0.2
			l0.2-1c1.9,0.3,3.8,0.3,5.7,0l0.2,1C408.2,351.1,407.1,351.2,406.1,351.2z M393.8,347.4c-1.6-1-3.2-2.1-4.9-3.5l0.6-0.8
			c1.6,1.3,3.2,2.5,4.8,3.4L393.8,347.4z M418.5,347.2l-0.5-0.8c1.5-1,3.1-2.2,4.6-3.6l0.7,0.7C421.6,344.9,420.1,346.1,418.5,347.2
			z M428,342.9c-1.3-1.5-2.5-3.1-3.7-4.7l0.8-0.6c1.2,1.6,2.4,3.1,3.7,4.6L428,342.9z M536,342.5l-1-0.2c0.3-1.5,0.4-3,0.4-4.5
			c0-0.4,0-0.9,0-1.3l1-0.1c0,0.5,0,0.9,0,1.4C536.4,339.3,536.3,340.9,536,342.5z M218.9,339.4c-0.7-1.9-1.3-3.8-1.9-5.6l1-0.3
			c0.6,1.8,1.2,3.7,1.9,5.6L218.9,339.4z M381.7,337.1c-1.3-1.4-2.6-2.9-4-4.5l0.8-0.6c1.4,1.6,2.7,3.1,3.9,4.4L381.7,337.1z
			 M430,336.2l-0.8-0.6c0.8-1,1.6-2.1,2.4-3.2c0.4-0.5,0.8-1.1,1.2-1.6l0.8,0.6c-0.4,0.5-0.8,1-1.2,1.6
			C431.7,334.1,430.8,335.1,430,336.2z M418.5,330.1c-1.1-1.6-2.2-3.3-3.3-5l0.8-0.5c1,1.7,2.1,3.3,3.2,5L418.5,330.1z M533.2,327
			c-0.7-1.8-1.5-3.6-2.4-5.4l0.9-0.5c0.9,1.8,1.8,3.6,2.5,5.5L533.2,327z M371.4,324.9c-1.2-1.5-2.4-3.1-3.6-4.8l0.8-0.6
			c1.2,1.6,2.4,3.2,3.6,4.7L371.4,324.9z M214.2,324.2c-0.5-2-1-3.9-1.4-5.8l1-0.2c0.4,1.9,0.9,3.8,1.4,5.8L214.2,324.2z
			 M439.8,323.7l-0.8-0.7c1.3-1.5,2.7-3,4-4.4l0.7,0.7C442.5,320.7,441.1,322.2,439.8,323.7z M410.2,316.6c-1-1.7-1.9-3.5-2.8-5.3
			l0.9-0.5c0.9,1.8,1.8,3.5,2.8,5.2L410.2,316.6z M525.4,313.5c-1.2-1.5-2.6-3-4-4.3l0.7-0.7c1.4,1.4,2.8,2.9,4,4.4L525.4,313.5z
			 M450.9,312.5l-0.7-0.8c1.5-1.3,3.1-2.6,4.6-3.8l0.6,0.8C453.9,309.9,452.4,311.2,450.9,312.5z M362,312.1l-3.5-4.8l0.8-0.6
			l3.5,4.8L362,312.1z M211,308.6c-0.3-2-0.5-4-0.7-5.9l1-0.1c0.2,1.9,0.4,3.9,0.7,5.9L211,308.6z M463.6,303.2l-0.5-0.9
			c1.8-1,3.5-1.9,5.3-2.8l0.4,0.9C467.1,301.3,465.3,302.2,463.6,303.2z M513.8,303c-1.7-1.1-3.4-2-5.1-2.9l0.4-0.9
			c1.8,0.9,3.5,1.9,5.2,2.9L513.8,303z M403.1,302.3c-0.8-1.8-1.6-3.7-2.3-5.5l0.9-0.4c0.7,1.8,1.5,3.7,2.3,5.5L403.1,302.3z
			 M352.6,299.3c-1.2-1.6-2.3-3.2-3.5-4.8l0.8-0.6c1.2,1.6,2.4,3.2,3.5,4.8L352.6,299.3z M478.1,297.2l-0.2-1c2-0.5,3.9-0.9,5.9-1.1
			l0.1,1C481.9,296.4,480,296.7,478.1,297.2z M499.4,296.8c-1.9-0.4-3.9-0.8-5.8-0.9l0.1-1c2,0.2,4,0.5,5.9,1L499.4,296.8z
			 M211.1,292.7l-1,0c0.1-2,0.2-4,0.4-6l1,0.1C211.3,288.8,211.1,290.7,211.1,292.7z M397.5,287.4c-0.6-1.9-1.2-3.8-1.7-5.7l1-0.3
			c0.5,1.9,1.1,3.8,1.7,5.7L397.5,287.4z M343.1,286.6c-1.2-1.6-2.5-3.1-3.7-4.6l0.8-0.6c1.3,1.5,2.5,3.1,3.7,4.6L343.1,286.6z
			 M213.3,277.2l-1-0.3c0.5-2,1.2-3.9,1.9-5.7l0.9,0.4C214.4,273.4,213.8,275.3,213.3,277.2z M332.9,274.5c-1.3-1.5-2.7-3-4-4.4
			l0.7-0.7c1.3,1.4,2.7,2.9,4,4.4L332.9,274.5z M393.5,272.1c-0.4-2-0.7-4-1-5.9l1-0.1c0.3,1.9,0.6,3.9,1,5.8L393.5,272.1z
			 M321.9,263.1c-1.5-1.4-3-2.7-4.4-3.9l0.6-0.8c1.5,1.2,3,2.6,4.5,4L321.9,263.1z M219.6,263l-0.8-0.6c1.1-1.7,2.3-3.3,3.6-4.8
			l0.8,0.7C221.9,259.8,220.7,261.3,219.6,263z M392.5,256.2l-1,0c0-1,0.1-3.1,0.3-6l1,0.1C392.6,253.1,392.5,255.2,392.5,256.2z
			 M309.6,253.2c-1.6-1.1-3.3-2.2-4.9-3.2l0.5-0.9c1.7,1,3.3,2.1,5,3.3L309.6,253.2z M230.4,251.7l-0.6-0.8c1.6-1.2,3.3-2.3,5-3.3
			l0.5,0.9C233.6,249.4,231.9,250.5,230.4,251.7z M296,245.4c-1.8-0.8-3.6-1.6-5.5-2.2l0.3-0.9c1.8,0.7,3.7,1.4,5.5,2.2L296,245.4z
			 M244.2,244.3l-0.3-0.9c1.8-0.7,3.8-1.3,5.7-1.8l0.3,1C247.9,243,246,243.6,244.2,244.3z M281.1,240.6c-1.8-0.3-3.8-0.5-5.9-0.6
			l0.1-1c2.1,0.1,4.1,0.4,6,0.7L281.1,240.6z M259.5,240.5l-0.1-1c2-0.3,4-0.5,6-0.6l0.1,1C263.4,240.1,261.4,240.3,259.5,240.5z
			 M393.9,240.5l-1-0.1c0.3-2,0.6-4,1-5.9l1,0.2C394.5,236.6,394.2,238.5,393.9,240.5z"/>
	</g>
	<g>
		<path fill="#FFFFFF" d="M160.5,383.5c-1-0.2-1.9-0.5-2.9-0.8l0.3-1c1,0.3,1.9,0.5,2.9,0.8L160.5,383.5z"/>
	</g>
</g>
<g>
	<path fill="#FFFFFF" d="M148.8,163c-2,0-4-0.1-6-0.1l0-1c2,0.1,4,0.1,6,0.1L148.8,163z M158.8,162.8l0-1c2-0.1,4-0.2,6-0.3l0.1,1
		C162.8,162.6,160.8,162.7,158.8,162.8z M132.8,162.2l-0.2,0c-1.9-0.1-3.8-0.4-5.8-0.6l0.1-1c2,0.3,3.9,0.5,5.7,0.6l0.2,0
		L132.8,162.2z M231.1,162.2c-0.8,0-1.6,0-2.3-0.1l0.1-1c0.8,0,1.5,0.1,2.3,0.1c1.2,0,2.4-0.1,3.6-0.2l0.1,1
		C233.6,162.2,232.3,162.2,231.1,162.2z M174.8,161.4l-0.1-1c2-0.3,4-0.6,5.9-0.9l0.2,1C178.8,160.8,176.8,161.1,174.8,161.4z
		 M218.8,160.3c-1.9-0.6-3.8-1.3-5.6-2.2l0.4-0.9c1.8,0.8,3.7,1.6,5.5,2.2L218.8,160.3z M116.9,159.9c-1.9-0.4-3.9-0.8-5.9-1.3
		l0.2-1c2,0.5,3.9,0.9,5.9,1.3L116.9,159.9z M244.6,159.8l-0.3-0.9c1.8-0.7,3.6-1.4,5.4-2.4l0.5,0.9
		C248.4,158.3,246.5,159.2,244.6,159.8z M190.5,158.3l-0.3-1c2-0.5,3.9-1.1,5.7-1.6l0.3,1C194.4,157.3,192.5,157.8,190.5,158.3z
		 M101.3,156.1c-1.9-0.5-3.8-1.1-5.8-1.7l0.3-1c1.9,0.6,3.8,1.2,5.7,1.7L101.3,156.1z M205.7,153.2l-0.4-0.9
		c1.9-0.8,3.7-1.6,5.4-2.5l0.5,0.9C209.4,151.6,207.6,152.4,205.7,153.2z M204.5,152.9c-1.6-1.2-3.2-2.5-4.7-3.8l0.7-0.7
		c1.5,1.3,3,2.6,4.6,3.7L204.5,152.9z M258.7,151.9l-0.6-0.8c1.5-1.2,3-2.5,4.5-3.9l0.7,0.7C261.7,149.4,260.2,150.7,258.7,151.9z
		 M86,151.2c-1.9-0.7-3.8-1.4-5.6-2.1l0.4-0.9c1.9,0.7,3.7,1.4,5.6,2.1L86,151.2z M219.9,145.6l-0.6-0.8c1.7-1.1,3.3-2.3,4.8-3.5
		l0.6,0.8C223.2,143.3,221.6,144.5,219.9,145.6z M529,145.6l-1,0c0.1-2,0.2-4,0.2-6l1,0C529.2,141.5,529.1,143.5,529,145.6z
		 M71.1,145.2c-1.9-0.8-3.7-1.6-5.5-2.5l0.4-0.9c1.8,0.8,3.6,1.7,5.5,2.5L71.1,145.2z M192.9,141.8c-1.3-1.6-2.5-3.2-3.6-4.9
		l0.8-0.6c1.1,1.6,2.3,3.3,3.6,4.8L192.9,141.8z M270.1,140.6l-0.8-0.6c1.2-1.5,2.5-3.1,3.7-4.7l0.8,0.6
		C272.6,137.5,271.3,139.1,270.1,140.6z M56.6,138.3c-1.8-0.9-3.6-1.9-5.3-2.9l0.5-0.9c1.7,1,3.5,1.9,5.3,2.8L56.6,138.3z
		 M232.2,135.3l-0.7-0.7c1.4-1.5,2.6-3,3.8-4.6l0.8,0.6C234.8,132.2,233.5,133.8,232.2,135.3z M42.7,130.3c-1.7-1.1-3.4-2.2-5-3.3
		l0.6-0.8c1.6,1.1,3.3,2.2,5,3.3L42.7,130.3z M528.3,129.6c0-2-0.1-4-0.2-6l1,0c0.1,2,0.1,4,0.2,6L528.3,129.6z M184.2,128.2
		c-0.9-1.8-1.7-3.7-2.4-5.6l0.9-0.3c0.7,1.8,1.5,3.7,2.3,5.5L184.2,128.2z M279.3,127.5l-0.9-0.5c1-1.7,2-3.4,3-5.2l0.9,0.5
		C281.3,124.1,280.3,125.8,279.3,127.5z M241.4,122.1l-0.9-0.4c0.9-1.8,1.7-3.6,2.3-5.5l0.9,0.3
		C243.1,118.4,242.3,120.2,241.4,122.1z M29.5,121.2c-1.6-1.3-3.2-2.5-4.7-3.8l0.6-0.8c1.5,1.3,3,2.5,4.6,3.8L29.5,121.2z
		 M527.6,113.6c-0.2-2-0.4-4-0.6-6l1-0.1c0.2,1.9,0.4,4,0.6,6L527.6,113.6z M286.9,113.4l-0.9-0.4c0.9-1.8,1.8-3.6,2.7-5.4l0.9,0.5
		C288.7,109.8,287.8,111.6,286.9,113.4z M179.2,113c-0.4-2-0.6-4.1-0.7-6l1-0.1c0.1,1.9,0.3,3.9,0.7,5.9L179.2,113z M17.4,110.5
		c-1.4-1.5-2.8-3-4.1-4.5l0.8-0.6c1.3,1.5,2.6,3,4,4.4L17.4,110.5z M246,106.7l-1-0.1c0.2-1.6,0.3-3.1,0.3-4.6c0-0.4,0-0.8,0-1.3
		l1,0c0,0.4,0,0.9,0,1.3C246.3,103.5,246.2,105.1,246,106.7z M294.2,99.2l-0.9-0.5c1-1.8,1.9-3.5,2.9-5.3l0.9,0.5
		C296.2,95.7,295.2,97.4,294.2,99.2z M7.4,98c-1.1-1.7-2.1-3.5-3-5.3l0.9-0.4c0.8,1.7,1.8,3.5,2.9,5.2L7.4,98z M525.6,97.8
		c-0.3-2-0.7-4-1.1-5.9l1-0.2c0.4,1.9,0.8,3.9,1.1,5.9L525.6,97.8z M180.2,97.1l-1-0.2c0.4-2,1-4,1.7-5.8l0.9,0.4
		C181.2,93.2,180.6,95.1,180.2,97.1z M243.6,90.9c-0.6-1.9-1.4-3.7-2.3-5.4l0.9-0.5c1,1.8,1.8,3.6,2.4,5.6L243.6,90.9z M302.2,85.3
		l-0.9-0.5c1.1-1.7,2.1-3.4,3.2-5.1l0.8,0.5C304.3,81.9,303.2,83.6,302.2,85.3z M0.9,83.3c-0.5-2-0.8-4-0.9-6l1-0.1
		c0.1,1.9,0.5,3.9,0.9,5.8L0.9,83.3z M187,83.1l-0.8-0.7c1.3-1.5,2.8-2.9,4.4-4.1l0.6,0.8C189.7,80.3,188.3,81.6,187,83.1z
		 M522.2,82.3c-0.5-1.9-1.1-3.9-1.7-5.7l1-0.3c0.6,1.9,1.2,3.8,1.7,5.8L522.2,82.3z M235.3,77.9c-1.5-1.3-3.1-2.4-4.8-3.4l0.5-0.9
		c1.8,1,3.5,2.2,5,3.5L235.3,77.9z M199.9,74.3l-0.4-0.9c1.8-0.7,3.7-1.4,5.8-1.9l0.3,1C203.6,72.9,201.7,73.6,199.9,74.3z
		 M310.8,71.9l-0.8-0.6c1.1-1.7,2.3-3.3,3.4-4.9l0.8,0.6C313.1,68.6,311.9,70.2,310.8,71.9z M221.2,71.4c-1.9-0.3-3.9-0.4-5.9-0.4
		l0-1c2.1,0,4.1,0.1,6.1,0.4L221.2,71.4z M1.6,67.4l-1-0.2c0.4-1.9,1-3.9,1.7-5.8l0.9,0.4C2.6,63.6,2,65.6,1.6,67.4z M517.1,67.2
		c-0.8-1.9-1.6-3.7-2.4-5.5l0.9-0.4c0.8,1.8,1.6,3.6,2.4,5.5L517.1,67.2z M320.1,59l-0.8-0.6c1.2-1.6,2.5-3.2,3.7-4.7l0.8,0.6
		C322.6,55.8,321.3,57.4,320.1,59z M510.2,52.9c-1-1.7-2-3.4-3.1-5.1l0.8-0.5c1.1,1.7,2.1,3.4,3.1,5.1L510.2,52.9z M330.3,46.6
		l-0.7-0.7c1.3-1.5,2.7-3,4-4.4l0.7,0.7C332.9,43.7,331.6,45.1,330.3,46.6z M501.2,39.8c-1.2-1.5-2.5-3.1-3.9-4.5l0.7-0.7
		c1.3,1.5,2.7,3,3.9,4.6L501.2,39.8z M341.3,35.1l-0.7-0.7c1.5-1.4,2.9-2.8,4.4-4.1l0.7,0.7C344.2,32.4,342.7,33.7,341.3,35.1z
		 M490.3,28.2c-1.5-1.3-3-2.6-4.6-3.8l0.6-0.8c1.6,1.2,3.1,2.6,4.6,3.9L490.3,28.2z M353.3,24.7l-0.6-0.8c1.6-1.3,3.2-2.5,4.8-3.6
		l0.6,0.8C356.5,22.2,354.9,23.4,353.3,24.7z M477.7,18.6c-1.7-1.1-3.4-2.1-5.1-3.1l0.5-0.9c1.8,1,3.5,2,5.2,3.1L477.7,18.6z
		 M366.3,15.5l-0.5-0.9c1.7-1.1,3.5-2.1,5.2-3l0.5,0.9C369.8,13.4,368,14.4,366.3,15.5z M463.7,11.1c-1.8-0.8-3.7-1.6-5.5-2.3
		l0.4-0.9c1.9,0.7,3.8,1.5,5.6,2.3L463.7,11.1z M380.4,8.1L380,7.2c1.9-0.8,3.7-1.6,5.6-2.3l0.3,0.9C384.1,6.5,382.2,7.3,380.4,8.1z
		 M448.7,5.7c-1.9-0.5-3.9-1-5.8-1.5l0.2-1c2,0.5,3.9,1,5.8,1.5L448.7,5.7z M395.4,2.9l-0.2-1c2-0.5,4-0.9,5.9-1.2l0.2,1
		C399.4,2.1,397.4,2.5,395.4,2.9z M433.1,2.4c-2-0.3-4-0.5-5.9-0.7l0.1-1c2,0.2,4,0.5,6,0.7L433.1,2.4z M411.2,1.1l0-1
		c0.9,0,2.3-0.1,4.2-0.1c0.6,0,1.2,0,1.9,0l0,1c-0.7,0-1.3,0-1.9,0C413.5,1,412.1,1.1,411.2,1.1z"/>
</g>
<g>
	<path fill="#FFFFFF" d="M816.6,378.5l0-1c2-0.1,3.9-0.2,5.8-0.3l0.2,0.5l0,0.5l-0.2-0.5l0,0.5C820.5,378.3,818.6,378.5,816.6,378.5
		z M806.5,378.5c-2-0.1-4-0.2-6-0.3l0.1-1c2,0.1,4,0.2,6,0.3L806.5,378.5z M790.5,377.3c-2-0.2-4-0.5-6-0.8l0.1-1
		c2,0.3,4,0.5,5.9,0.8L790.5,377.3z M832.6,377.1l-0.1-1c2-0.3,4-0.5,5.9-0.8l0.2,1C836.6,376.6,834.6,376.8,832.6,377.1z
		 M774.7,374.9c-2-0.4-4-0.8-5.9-1.2l0.2-1c1.9,0.4,3.9,0.8,5.9,1.2L774.7,374.9z M848.4,374.5l-0.2-1c2-0.4,3.9-0.9,5.8-1.3l0.2,1
		C852.3,373.6,850.3,374.1,848.4,374.5z M759,371.5c-2-0.5-3.9-1-5.8-1.6l0.3-1c1.9,0.5,3.8,1,5.8,1.5L759,371.5z M863.9,370.5
		l-0.3-1c1.9-0.6,3.8-1.2,5.7-1.9l0.3,0.9C867.7,369.2,865.8,369.9,863.9,370.5z M743.6,367c-1.9-0.6-3.8-1.3-5.7-2l0.3-0.9
		c1.8,0.7,3.7,1.3,5.7,1.9L743.6,367z M878.9,364.9l-0.4-0.9c1.8-0.8,3.6-1.7,5.4-2.6l0.5,0.9C882.6,363.2,880.8,364.1,878.9,364.9z
		 M917.2,362.4l-0.1-1c2-0.2,3.9-0.6,5.8-1.1l0.3,1C921.3,361.8,919.3,362.1,917.2,362.4z M907.1,362.1c-2-0.3-4-0.7-5.9-1.3l0.3-1
		c1.9,0.5,3.9,1,5.8,1.2L907.1,362.1z M728.5,361.5c-1.9-0.8-3.7-1.6-5.5-2.4l0.4-0.9c1.8,0.8,3.6,1.6,5.5,2.4L728.5,361.5z
		 M932.6,357.5l-0.5-0.9c1.7-0.9,3.4-2,5-3.2l0.6,0.8C936,355.4,934.3,356.5,932.6,357.5z M893.1,357.3l-0.5-0.8
		c1.7-1.1,3.4-2.2,4.9-3.4l0.6,0.8C896.5,355.1,894.8,356.2,893.1,357.3z M891.8,357.2c-1.8-0.9-3.5-1.9-5.3-3l0.5-0.8
		c1.7,1.1,3.4,2.1,5.2,2.9L891.8,357.2z M714,354.6c-1.8-1-3.6-2-5.2-3l0.5-0.9c1.7,1,3.4,2,5.2,3L714,354.6z M878.5,348.2
		c-1.5-1.3-3-2.7-4.3-4.2l0.7-0.7c1.4,1.4,2.8,2.8,4.3,4.1L878.5,348.2z M905.8,347.5l-0.7-0.7c1.5-1.4,2.9-2.8,4.2-4.2l0.7,0.7
		C908.7,344.7,907.3,346.2,905.8,347.5z M945.1,347.4l-0.7-0.7c1.3-1.4,2.6-3,3.8-4.6l0.8,0.6C947.7,344.4,946.4,346,945.1,347.4z
		 M700.4,346c-1.7-1.2-3.3-2.5-4.7-3.7l0.6-0.8c1.5,1.2,3.1,2.5,4.7,3.7L700.4,346z M867.8,336.2c-1.2-1.7-2.2-3.4-3.2-5.1l0.9-0.5
		c1,1.7,2,3.4,3.2,5L867.8,336.2z M688.4,335.3c-1.4-1.5-2.7-3.1-3.8-4.7l0.8-0.6c1.1,1.6,2.4,3.1,3.7,4.6L688.4,335.3z
		 M916.2,335.3l-0.8-0.6c1.1-1.7,2.1-3.4,3-5.1l0.9,0.5C918.4,331.9,917.4,333.6,916.2,335.3z M954.5,334.4l-0.9-0.5
		c1-1.7,1.9-3.4,2.8-5.2l0.9,0.4C956.5,330.9,955.5,332.7,954.5,334.4z M860.4,321.9c-0.7-1.9-1.2-3.9-1.7-5.8l1-0.2
		c0.4,1.9,1,3.8,1.6,5.7L860.4,321.9z M679.6,321.9c-0.8-1.9-1.4-3.8-1.9-5.7l1-0.2c0.5,1.9,1.1,3.8,1.9,5.6L679.6,321.9z
		 M923.2,320.8l-1-0.3c0.6-1.9,1.1-3.8,1.4-5.8l1,0.2C924.2,316.9,923.8,318.9,923.2,320.8z M961.5,319.9l-0.9-0.4
		c0.7-1.8,1.4-3.7,2.1-5.6l0.9,0.3C962.9,316.2,962.2,318.1,961.5,319.9z M677.8,306.1l-1,0c0.1-2,0.3-4,0.7-6l1,0.2
		C678.1,302.2,677.8,304.2,677.8,306.1z M858.8,306.1l-1,0c0.1-2.1,0.3-4.1,0.8-6l1,0.2C859.1,302.1,858.8,304.1,858.8,306.1z
		 M924.2,304.9c-0.1-2-0.3-4-0.7-5.9l1-0.2c0.4,2,0.6,4,0.7,6L924.2,304.9z M966.7,304.8l-1-0.3c0.6-1.9,1.2-3.9,1.8-5.7l1,0.3
		C967.8,300.9,967.2,302.8,966.7,304.8z M1209.8,296.9c-0.2-2-0.5-4-0.8-5.9l1-0.1c0.3,2,0.5,3.9,0.8,6L1209.8,296.9z M863.2,291.2
		l-0.8-0.5c1.1-1.7,2.3-3.3,3.7-4.8l0.7,0.7C865.4,287.9,864.2,289.5,863.2,291.2z M920.3,289.7c-0.9-1.8-2-3.5-3.2-5l0.8-0.6
		c1.2,1.6,2.3,3.3,3.3,5.1L920.3,289.7z M971.6,289.6l-0.9-0.3c0.7-1.9,1.3-3.8,2-5.7l0.9,0.3C972.9,285.8,972.2,287.7,971.6,289.6z
		 M1207.5,281.1c-0.4-2-0.7-4-1.1-5.9l1-0.2c0.4,1.9,0.8,3.9,1.1,5.9L1207.5,281.1z M874.5,280.4l-0.5-0.9c1.7-1,3.5-1.9,5.4-2.8
		l0.4,0.9C877.9,278.5,876.1,279.4,874.5,280.4z M910,278.2c-1.7-1-3.4-1.9-5.3-2.5l0.3-0.9c1.9,0.7,3.8,1.6,5.5,2.6L910,278.2z
		 M889.1,274.6l-0.2-1c2-0.4,4.1-0.6,6-0.6l0,1C893.1,274.1,891.1,274.3,889.1,274.6z M977.1,274.6l-0.9-0.4
		c0.8-1.9,1.5-3.7,2.3-5.6l0.9,0.4C978.6,270.9,977.9,272.7,977.1,274.6z M1204.1,265.5c-0.5-1.9-1-3.9-1.6-5.8l1-0.3
		c0.5,1.9,1.1,3.9,1.6,5.8L1204.1,265.5z M983.4,259.9l-0.9-0.4c0.8-1.8,1.7-3.7,2.6-5.4l0.9,0.4
		C985.1,256.3,984.3,258.1,983.4,259.9z M1199.6,250.2c-0.7-1.9-1.3-3.8-2-5.6l0.9-0.4c0.7,1.8,1.4,3.7,2.1,5.6L1199.6,250.2z
		 M990.5,245.6l-0.9-0.5c1-1.8,1.9-3.6,2.9-5.3l0.9,0.5C992.4,242.1,991.5,243.8,990.5,245.6z M1193.6,235.4
		c-0.8-1.8-1.7-3.6-2.6-5.4l0.9-0.5c0.9,1.8,1.8,3.6,2.6,5.4L1193.6,235.4z M998.5,231.8l-0.8-0.5c1.1-1.7,2.2-3.4,3.3-5l0.8,0.6
		C1000.7,228.4,999.6,230.1,998.5,231.8z M1186.2,221.4c-1-1.7-2.1-3.4-3.2-5l0.8-0.6c1.1,1.6,2.2,3.3,3.3,5.1L1186.2,221.4z
		 M1007.5,218.7l-0.8-0.6c1.2-1.6,2.4-3.2,3.7-4.8l0.8,0.6C1009.9,215.5,1008.7,217.1,1007.5,218.7z M1177,208.4
		c-1.3-1.5-2.6-3.1-3.9-4.5l0.7-0.7c1.3,1.5,2.7,3,3.9,4.5L1177,208.4z M1017.6,206.4l-0.7-0.7c1.4-1.5,2.8-3,4.1-4.4l0.7,0.7
		C1020.3,203.4,1018.9,204.9,1017.6,206.4z M1166,196.9c-1.5-1.3-3-2.6-4.6-3.8l0.6-0.8c1.6,1.2,3.1,2.5,4.6,3.9L1166,196.9z
		 M1028.9,195.2l-0.7-0.8c1.5-1.3,3.1-2.6,4.6-3.9l0.6,0.8C1032,192.6,1030.5,193.9,1028.9,195.2z M1153.3,187.3
		c-1.7-1.1-3.4-2.1-5.1-3l0.5-0.9c1.8,1,3.5,2,5.2,3.1L1153.3,187.3z M1041.6,185.5l-0.5-0.8c1.7-1.1,3.4-2.2,5.1-3.1l0.5,0.9
		C1045,183.4,1043.3,184.4,1041.6,185.5z M1139.3,179.9c-1.8-0.8-3.7-1.5-5.6-2.2l0.3-0.9c1.9,0.7,3.8,1.4,5.6,2.2L1139.3,179.9z
		 M1055.6,178l-0.4-0.9c1.9-0.8,3.8-1.5,5.7-2.1l0.3,1C1059.3,176.5,1057.5,177.2,1055.6,178z M1124.2,174.8
		c-1.9-0.5-3.9-0.9-5.8-1.3l0.2-1c2,0.4,4,0.8,5.9,1.3L1124.2,174.8z M1070.9,173.6l-0.2-1c1.2-0.3,3.2-0.7,5.9-1.1l0.1,1
		C1074.1,172.9,1072.1,173.3,1070.9,173.6z M1108.5,172c-2-0.2-4-0.4-6-0.5l0.1-1c2,0.1,4,0.3,6,0.5L1108.5,172z M1086.6,171.5
		l-0.1-1c2-0.1,4-0.2,6-0.2l0,1C1090.6,171.3,1088.6,171.4,1086.6,171.5z"/>
</g>
<g>
	
		<linearGradient id="SVGID_1_" gradientUnits="userSpaceOnUse" x1="486.9681" y1="478.7744" x2="475.8004" y2="451.9352" gradientTransform="matrix(0.9983 5.880000e-02 -5.880000e-02 0.9983 18.039 -314.9365)">
		<stop  offset="0" style="stop-color:#DCDCD2"/>
		<stop  offset="0" style="stop-color:#A5A394"/>
		<stop  offset="9.096100e-04" style="stop-color:#EDECE1"/>
		<stop  offset="2.438650e-03" style="stop-color:#A9A99A"/>
		<stop  offset="6.665130e-02" style="stop-color:#808285"/>
		<stop  offset="0.2971" style="stop-color:#939598"/>
		<stop  offset="0.3526" style="stop-color:#9B9DA0"/>
		<stop  offset="0.4435" style="stop-color:#A3A5A8"/>
		<stop  offset="0.4815" style="stop-color:#B6B8BA"/>
		<stop  offset="0.5423" style="stop-color:#D0D2D4"/>
		<stop  offset="0.5935" style="stop-color:#E0E2E3"/>
		<stop  offset="0.6287" style="stop-color:#E6E7E8"/>
		<stop  offset="0.6711" style="stop-color:#E3E4E5"/>
		<stop  offset="0.7101" style="stop-color:#DADBDD"/>
		<stop  offset="0.7479" style="stop-color:#CACCCE"/>
		<stop  offset="0.7847" style="stop-color:#B5B7B9"/>
		<stop  offset="0.8039" style="stop-color:#A7A9AC"/>
		<stop  offset="1" style="stop-color:#A5A394"/>
	</linearGradient>
	<polygon fill="url(#SVGID_1_)" points="431.2,181.5 432.3,203.9 513.2,160.6 513.2,160.6 	"/>
	
		<linearGradient id="SVGID_2_" gradientUnits="userSpaceOnUse" x1="458.6778" y1="479.2542" x2="448.3875" y2="486.3969" gradientTransform="matrix(0.9983 5.880000e-02 -5.880000e-02 0.9983 18.039 -314.9365)">
		<stop  offset="0.3183" style="stop-color:#939598"/>
		<stop  offset="0.58" style="stop-color:#E6E7E8"/>
		<stop  offset="1" style="stop-color:#EEEDE4"/>
	</linearGradient>
	<polygon fill="url(#SVGID_2_)" points="439.3,189.8 432.8,203.9 450,194.9 	"/>
	
		<linearGradient id="SVGID_3_" gradientUnits="userSpaceOnUse" x1="508.9581" y1="494.617" x2="491.7524" y2="475.6422" gradientTransform="matrix(0.9979 6.550000e-02 -6.550000e-02 0.9979 18.9848 -329.3967)">
		<stop  offset="0" style="stop-color:#D1D3D4"/>
		<stop  offset="2.438650e-03" style="stop-color:#A9A99A"/>
		<stop  offset="4.653590e-03" style="stop-color:#D9D8CE"/>
		<stop  offset="4.653590e-03" style="stop-color:#D6D5CB"/>
		<stop  offset="4.653590e-03" style="stop-color:#D4D4C8"/>
		<stop  offset="5.029080e-03" style="stop-color:#C0BEAF"/>
		<stop  offset="3.126970e-02" style="stop-color:#B1B0A2"/>
		<stop  offset="0.4402" style="stop-color:#E6E7E8"/>
		<stop  offset="1" style="stop-color:#FFFFFF"/>
		<stop  offset="1" style="stop-color:#E2DFCF"/>
	</linearGradient>
	<polyline fill="url(#SVGID_3_)" points="439.6,189.8 513.9,160.6 460.7,207.6 	"/>
	
		<linearGradient id="SVGID_4_" gradientUnits="userSpaceOnUse" x1="455.0729" y1="412.0685" x2="474.462" y2="453.9677" gradientTransform="matrix(0.9983 5.880000e-02 -5.880000e-02 0.9983 18.039 -314.9365)">
		<stop  offset="0" style="stop-color:#DCDCD2"/>
		<stop  offset="0" style="stop-color:#A5A394"/>
		<stop  offset="9.096100e-04" style="stop-color:#EDECE1"/>
		<stop  offset="2.438650e-03" style="stop-color:#A9A99A"/>
		<stop  offset="4.653590e-03" style="stop-color:#D9D8CE"/>
		<stop  offset="4.653590e-03" style="stop-color:#D6D5CB"/>
		<stop  offset="4.653590e-03" style="stop-color:#D4D4C8"/>
		<stop  offset="5.029080e-03" style="stop-color:#C0BEAF"/>
		<stop  offset="7.434330e-03" style="stop-color:#B3B2A5"/>
		<stop  offset="9.927010e-03" style="stop-color:#E3E1D2"/>
		<stop  offset="3.867140e-02" style="stop-color:#DEDCCD"/>
		<stop  offset="0.3387" style="stop-color:#BCBEC0"/>
		<stop  offset="0.9375" style="stop-color:#F1F2F2"/>
	</linearGradient>
	<polygon fill="url(#SVGID_4_)" points="513.9,160.6 413.9,166.2 431.2,181.5 	"/>
</g>
<g>
	
		<linearGradient id="SVGID_5_" gradientUnits="userSpaceOnUse" x1="805.0225" y1="466.121" x2="793.8547" y2="439.2818" gradientTransform="matrix(0.6394 0.7689 -0.7689 0.6394 617.5548 -703.33)">
		<stop  offset="0" style="stop-color:#DCDCD2"/>
		<stop  offset="0" style="stop-color:#A5A394"/>
		<stop  offset="9.096100e-04" style="stop-color:#EDECE1"/>
		<stop  offset="2.438650e-03" style="stop-color:#A9A99A"/>
		<stop  offset="6.665130e-02" style="stop-color:#808285"/>
		<stop  offset="0.2971" style="stop-color:#939598"/>
		<stop  offset="0.3526" style="stop-color:#9B9DA0"/>
		<stop  offset="0.4435" style="stop-color:#A3A5A8"/>
		<stop  offset="0.4815" style="stop-color:#B6B8BA"/>
		<stop  offset="0.5423" style="stop-color:#D0D2D4"/>
		<stop  offset="0.5935" style="stop-color:#E0E2E3"/>
		<stop  offset="0.6287" style="stop-color:#E6E7E8"/>
		<stop  offset="0.6711" style="stop-color:#E3E4E5"/>
		<stop  offset="0.7101" style="stop-color:#DADBDD"/>
		<stop  offset="0.7479" style="stop-color:#CACCCE"/>
		<stop  offset="0.7847" style="stop-color:#B5B7B9"/>
		<stop  offset="0.8039" style="stop-color:#A7A9AC"/>
		<stop  offset="1" style="stop-color:#A5A394"/>
	</linearGradient>
	<polygon fill="url(#SVGID_5_)" points="750.7,174.1 735.1,190.1 822,219.6 822,219.6 	"/>
	
		<linearGradient id="SVGID_6_" gradientUnits="userSpaceOnUse" x1="776.7321" y1="466.6008" x2="766.4419" y2="473.7435" gradientTransform="matrix(0.6394 0.7689 -0.7689 0.6394 617.5548 -703.33)">
		<stop  offset="0.3183" style="stop-color:#939598"/>
		<stop  offset="0.58" style="stop-color:#E6E7E8"/>
		<stop  offset="1" style="stop-color:#EEEDE4"/>
	</linearGradient>
	<polygon fill="url(#SVGID_6_)" points="750.2,185.6 735.4,190.5 753.8,197 	"/>
	
		<linearGradient id="SVGID_7_" gradientUnits="userSpaceOnUse" x1="826.915" y1="479.8295" x2="809.7093" y2="460.8547" gradientTransform="matrix(0.6343 0.7732 -0.7732 0.6343 628.7562 -712.5236)">
		<stop  offset="0" style="stop-color:#D1D3D4"/>
		<stop  offset="2.438650e-03" style="stop-color:#A9A99A"/>
		<stop  offset="4.653590e-03" style="stop-color:#D9D8CE"/>
		<stop  offset="4.653590e-03" style="stop-color:#D6D5CB"/>
		<stop  offset="4.653590e-03" style="stop-color:#D4D4C8"/>
		<stop  offset="5.029080e-03" style="stop-color:#C0BEAF"/>
		<stop  offset="3.126970e-02" style="stop-color:#B1B0A2"/>
		<stop  offset="0.4402" style="stop-color:#E6E7E8"/>
		<stop  offset="1" style="stop-color:#FFFFFF"/>
		<stop  offset="1" style="stop-color:#E2DFCF"/>
	</linearGradient>
	<polyline fill="url(#SVGID_7_)" points="750.4,185.8 822.5,220.1 751.8,213.4 	"/>
	
		<linearGradient id="SVGID_8_" gradientUnits="userSpaceOnUse" x1="773.1273" y1="399.4152" x2="792.5164" y2="441.3144" gradientTransform="matrix(0.6394 0.7689 -0.7689 0.6394 617.5548 -703.33)">
		<stop  offset="0" style="stop-color:#DCDCD2"/>
		<stop  offset="0" style="stop-color:#A5A394"/>
		<stop  offset="9.096100e-04" style="stop-color:#EDECE1"/>
		<stop  offset="2.438650e-03" style="stop-color:#A9A99A"/>
		<stop  offset="4.653590e-03" style="stop-color:#D9D8CE"/>
		<stop  offset="4.653590e-03" style="stop-color:#D6D5CB"/>
		<stop  offset="4.653590e-03" style="stop-color:#D4D4C8"/>
		<stop  offset="5.029080e-03" style="stop-color:#C0BEAF"/>
		<stop  offset="7.434330e-03" style="stop-color:#B3B2A5"/>
		<stop  offset="9.927010e-03" style="stop-color:#E3E1D2"/>
		<stop  offset="3.867140e-02" style="stop-color:#DEDCCD"/>
		<stop  offset="0.3387" style="stop-color:#BCBEC0"/>
		<stop  offset="0.9375" style="stop-color:#F1F2F2"/>
	</linearGradient>
	<polygon fill="url(#SVGID_8_)" points="822.5,220.1 750.1,150.9 750.7,174.1 	"/>
</g>
<g>
	
		<linearGradient id="SVGID_9_" gradientUnits="userSpaceOnUse" x1="1200.9586" y1="229.6667" x2="1189.7909" y2="202.8275" gradientTransform="matrix(-0.961 -0.2767 -0.2767 0.961 2395.4126 457.9593)">
		<stop  offset="0" style="stop-color:#DCDCD2"/>
		<stop  offset="0" style="stop-color:#A5A394"/>
		<stop  offset="9.096100e-04" style="stop-color:#EDECE1"/>
		<stop  offset="2.438650e-03" style="stop-color:#A9A99A"/>
		<stop  offset="6.665130e-02" style="stop-color:#808285"/>
		<stop  offset="0.2971" style="stop-color:#939598"/>
		<stop  offset="0.3526" style="stop-color:#9B9DA0"/>
		<stop  offset="0.4435" style="stop-color:#A3A5A8"/>
		<stop  offset="0.4815" style="stop-color:#B6B8BA"/>
		<stop  offset="0.5423" style="stop-color:#D0D2D4"/>
		<stop  offset="0.5935" style="stop-color:#E0E2E3"/>
		<stop  offset="0.6287" style="stop-color:#E6E7E8"/>
		<stop  offset="0.6711" style="stop-color:#E3E4E5"/>
		<stop  offset="0.7101" style="stop-color:#DADBDD"/>
		<stop  offset="0.7479" style="stop-color:#CACCCE"/>
		<stop  offset="0.7847" style="stop-color:#B5B7B9"/>
		<stop  offset="0.8039" style="stop-color:#A7A9AC"/>
		<stop  offset="1" style="stop-color:#A5A394"/>
	</linearGradient>
	<polygon fill="url(#SVGID_9_)" points="1223.4,351.7 1214.9,372.4 1153.1,304.7 1153.1,304.7 	"/>
	
		<linearGradient id="SVGID_10_" gradientUnits="userSpaceOnUse" x1="1172.6682" y1="230.1466" x2="1162.3779" y2="237.2892" gradientTransform="matrix(-0.961 -0.2767 -0.2767 0.961 2395.4126 457.9593)">
		<stop  offset="0.3183" style="stop-color:#939598"/>
		<stop  offset="0.58" style="stop-color:#E6E7E8"/>
		<stop  offset="1" style="stop-color:#EEEDE4"/>
	</linearGradient>
	<polygon fill="url(#SVGID_10_)" points="1213,356.8 1214.5,372.3 1201.2,358.1 	"/>
	
		<linearGradient id="SVGID_11_" gradientUnits="userSpaceOnUse" x1="1221.2484" y1="240.7273" x2="1204.0427" y2="221.7525" gradientTransform="matrix(-0.9628 -0.2703 -0.2703 0.9628 2399.3318 444.0083)">
		<stop  offset="0" style="stop-color:#D1D3D4"/>
		<stop  offset="2.438650e-03" style="stop-color:#A9A99A"/>
		<stop  offset="4.653590e-03" style="stop-color:#D9D8CE"/>
		<stop  offset="4.653590e-03" style="stop-color:#D6D5CB"/>
		<stop  offset="4.653590e-03" style="stop-color:#D4D4C8"/>
		<stop  offset="5.029080e-03" style="stop-color:#C0BEAF"/>
		<stop  offset="3.126970e-02" style="stop-color:#B1B0A2"/>
		<stop  offset="0.4402" style="stop-color:#E6E7E8"/>
		<stop  offset="1" style="stop-color:#FFFFFF"/>
		<stop  offset="1" style="stop-color:#E2DFCF"/>
	</linearGradient>
	<polyline fill="url(#SVGID_11_)" points="1212.7,356.7 1152.3,304.5 1186.9,366.5 	"/>
	
		<linearGradient id="SVGID_12_" gradientUnits="userSpaceOnUse" x1="1169.0634" y1="162.9609" x2="1188.4525" y2="204.8601" gradientTransform="matrix(-0.961 -0.2767 -0.2767 0.961 2395.4126 457.9593)">
		<stop  offset="0" style="stop-color:#DCDCD2"/>
		<stop  offset="0" style="stop-color:#A5A394"/>
		<stop  offset="9.096100e-04" style="stop-color:#EDECE1"/>
		<stop  offset="2.438650e-03" style="stop-color:#A9A99A"/>
		<stop  offset="4.653590e-03" style="stop-color:#D9D8CE"/>
		<stop  offset="4.653590e-03" style="stop-color:#D6D5CB"/>
		<stop  offset="4.653590e-03" style="stop-color:#D4D4C8"/>
		<stop  offset="5.029080e-03" style="stop-color:#C0BEAF"/>
		<stop  offset="7.434330e-03" style="stop-color:#B3B2A5"/>
		<stop  offset="9.927010e-03" style="stop-color:#E3E1D2"/>
		<stop  offset="3.867140e-02" style="stop-color:#DEDCCD"/>
		<stop  offset="0.3387" style="stop-color:#BCBEC0"/>
		<stop  offset="0.9375" style="stop-color:#F1F2F2"/>
	</linearGradient>
	<polygon fill="url(#SVGID_12_)" points="1152.3,304.5 1244.8,343 1223.4,351.7 	"/>
</g>
<g>
	
		<linearGradient id="SVGID_13_" gradientUnits="userSpaceOnUse" x1="2229.374" y1="536.4794" x2="2218.2063" y2="509.6402" gradientTransform="matrix(-0.9745 -0.2246 -0.2246 0.9745 2397.8398 335.6028)">
		<stop  offset="0" style="stop-color:#DCDCD2"/>
		<stop  offset="0" style="stop-color:#A5A394"/>
		<stop  offset="9.096100e-04" style="stop-color:#EDECE1"/>
		<stop  offset="2.438650e-03" style="stop-color:#A9A99A"/>
		<stop  offset="6.665130e-02" style="stop-color:#808285"/>
		<stop  offset="0.2971" style="stop-color:#939598"/>
		<stop  offset="0.3526" style="stop-color:#9B9DA0"/>
		<stop  offset="0.4435" style="stop-color:#A3A5A8"/>
		<stop  offset="0.4815" style="stop-color:#B6B8BA"/>
		<stop  offset="0.5423" style="stop-color:#D0D2D4"/>
		<stop  offset="0.5935" style="stop-color:#E0E2E3"/>
		<stop  offset="0.6287" style="stop-color:#E6E7E8"/>
		<stop  offset="0.6711" style="stop-color:#E3E4E5"/>
		<stop  offset="0.7101" style="stop-color:#DADBDD"/>
		<stop  offset="0.7479" style="stop-color:#CACCCE"/>
		<stop  offset="0.7847" style="stop-color:#B5B7B9"/>
		<stop  offset="0.8039" style="stop-color:#A7A9AC"/>
		<stop  offset="1" style="stop-color:#A5A394"/>
	</linearGradient>
	<polygon fill="url(#SVGID_13_)" points="150.7,360.6 143.4,381.8 78,317.5 78,317.5 	"/>
	
		<linearGradient id="SVGID_14_" gradientUnits="userSpaceOnUse" x1="2201.0837" y1="536.9593" x2="2190.7935" y2="544.1019" gradientTransform="matrix(-0.9745 -0.2246 -0.2246 0.9745 2397.8398 335.6028)">
		<stop  offset="0.3183" style="stop-color:#939598"/>
		<stop  offset="0.58" style="stop-color:#E6E7E8"/>
		<stop  offset="1" style="stop-color:#EEEDE4"/>
	</linearGradient>
	<polygon fill="url(#SVGID_14_)" points="140.6,366.3 142.9,381.7 128.9,368.2 	"/>
	
		<linearGradient id="SVGID_15_" gradientUnits="userSpaceOnUse" x1="2251.6821" y1="540.6256" x2="2234.4766" y2="521.6509" gradientTransform="matrix(-0.976 -0.218 -0.218 0.976 2401.0027 321.4611)">
		<stop  offset="0" style="stop-color:#D1D3D4"/>
		<stop  offset="2.438650e-03" style="stop-color:#A9A99A"/>
		<stop  offset="4.653590e-03" style="stop-color:#D9D8CE"/>
		<stop  offset="4.653590e-03" style="stop-color:#D6D5CB"/>
		<stop  offset="4.653590e-03" style="stop-color:#D4D4C8"/>
		<stop  offset="5.029080e-03" style="stop-color:#C0BEAF"/>
		<stop  offset="3.126970e-02" style="stop-color:#B1B0A2"/>
		<stop  offset="0.4402" style="stop-color:#E6E7E8"/>
		<stop  offset="1" style="stop-color:#FFFFFF"/>
		<stop  offset="1" style="stop-color:#E2DFCF"/>
	</linearGradient>
	<polyline fill="url(#SVGID_15_)" points="140.3,366.2 77.2,317.3 115.1,377.4 	"/>
	
		<linearGradient id="SVGID_16_" gradientUnits="userSpaceOnUse" x1="2197.4788" y1="469.7736" x2="2216.8679" y2="511.6729" gradientTransform="matrix(-0.9745 -0.2246 -0.2246 0.9745 2397.8398 335.6028)">
		<stop  offset="0" style="stop-color:#DCDCD2"/>
		<stop  offset="0" style="stop-color:#A5A394"/>
		<stop  offset="9.096100e-04" style="stop-color:#EDECE1"/>
		<stop  offset="2.438650e-03" style="stop-color:#A9A99A"/>
		<stop  offset="4.653590e-03" style="stop-color:#D9D8CE"/>
		<stop  offset="4.653590e-03" style="stop-color:#D6D5CB"/>
		<stop  offset="4.653590e-03" style="stop-color:#D4D4C8"/>
		<stop  offset="5.029080e-03" style="stop-color:#C0BEAF"/>
		<stop  offset="7.434330e-03" style="stop-color:#B3B2A5"/>
		<stop  offset="9.927010e-03" style="stop-color:#E3E1D2"/>
		<stop  offset="3.867140e-02" style="stop-color:#DEDCCD"/>
		<stop  offset="0.3387" style="stop-color:#BCBEC0"/>
		<stop  offset="0.9375" style="stop-color:#F1F2F2"/>
	</linearGradient>
	<polygon fill="url(#SVGID_16_)" points="77.2,317.3 171.6,350.8 150.7,360.6 	"/>
</g>
</svg>
