<?xml version="1.0" encoding="utf-8"?>
<!-- Generator: Adobe Illustrator 17.1.0, SVG Export Plug-In . SVG Version: 6.00 Build 0)  -->
<!DOCTYPE svg PUBLIC "-//W3C//DTD SVG 1.1//EN" "http://www.w3.org/Graphics/SVG/1.1/DTD/svg11.dtd">
<svg version="1.1" id="Layer_1" xmlns="http://www.w3.org/2000/svg" xmlns:xlink="http://www.w3.org/1999/xlink" x="0px" y="0px"
	 viewBox="0 0 273.9 423.6" enable-background="new 0 0 273.9 423.6" xml:space="preserve">
<g>
	<g>
		<path fill="#FFFFFF" d="M42.9,59.8l-1.4,0.3c-0.3-1.4-0.6-2.8-0.8-4.2l1.4-0.2C42.3,57.1,42.6,58.5,42.9,59.8z"/>
	</g>
	<g>
		<path fill="#FFFFFF" d="M67.2,95l-0.9,1.1c-2.1-1.8-4.2-3.7-6.1-5.6l1-1C63.1,91.3,65.1,93.2,67.2,95z M52.3,79.2l-1.1,0.8
			c-1.7-2.3-3.2-4.7-4.5-7l1.2-0.7C49.1,74.7,50.6,77,52.3,79.2z"/>
	</g>
	<g>
		<path fill="#FFFFFF" d="M125.2,387.7c-0.5,1.1-1.1,2.2-1.7,3.3l-1.2-0.7c1.4-2.5,2.6-5,3.6-7.3l1.3,0.6
			C126.6,384.9,125.9,386.3,125.2,387.7z M116.2,402.7c-1.5,2.2-3.1,4.4-4.8,6.7l-1.1-0.9c1.7-2.2,3.3-4.5,4.8-6.6L116.2,402.7z
			 M131.2,370.3l-1.4-0.2c0.4-2.8,0.5-5.5,0.2-8l1.4-0.2C131.7,364.5,131.6,367.3,131.2,370.3z M266,81.2c-1.4,2.4-3,4.7-4.7,6.9
			l-1.1-0.9c1.7-2.1,3.2-4.4,4.6-6.7L266,81.2z M271.5,68.4l-1.3-0.4c0.8-2.6,1.4-5.3,1.8-8l1.4,0.2C272.9,63,272.3,65.8,271.5,68.4
			z M251.5,97.8c-2.1,1.7-4.4,3.3-6.8,4.8l-0.7-1.2c2.3-1.4,4.6-3,6.6-4.7L251.5,97.8z M126,349l-1.1,0.9c-1.6-1.9-3.7-3.7-6-5.2
			l0.7-1.2C122.1,345.1,124.2,347,126,349z M273.9,46.4l-1.4,0.1c-0.2-2.7-0.5-5.4-1.1-8.1l1.4-0.3
			C273.3,40.8,273.7,43.6,273.9,46.4z M232.6,108.9c-2.5,1.1-5,2.2-7.6,3.2l-0.5-1.3c2.5-1,5.1-2.1,7.5-3.2L232.6,108.9z
			 M268.6,24.8l-1.3,0.6c-1.1-2.5-2.4-4.9-3.8-7.2l1.2-0.8C266.1,19.8,267.5,22.2,268.6,24.8z M106.5,339.5
			c-2.5-0.7-5.2-1.2-7.9-1.6l0.2-1.4c2.8,0.4,5.5,0.9,8.1,1.6L106.5,339.5z M212.1,116.6c-2.6,0.8-5.2,1.5-7.9,2.2l-0.3-1.4
			c2.6-0.7,5.3-1.4,7.8-2.2L212.1,116.6z M197.2,145.6l-1.3-0.5c1-2.4,1.5-5,1.6-7.8l1.4,0.1C198.8,140.3,198.2,143.1,197.2,145.6z
			 M188.6,156.4c-2,1.5-4.4,3-7.1,4.3l-0.6-1.3c2.6-1.3,4.9-2.7,6.9-4.1L188.6,156.4z M255.5,7.1l-0.9,1.1c-1.6-1.2-3.2-2.3-4.9-3.2
			c-0.7-0.3-1.3-0.6-2-0.9l0.5-1.3c0.7,0.3,1.4,0.6,2.1,1C252.1,4.7,253.9,5.8,255.5,7.1z M196.9,123.5l-1.3,0.4
			c-0.7-2.4-1.7-5-2.8-7.7l1.3-0.6C195.2,118.4,196.2,121.1,196.9,123.5z M85.1,336.5c-2.7-0.4-5.5-0.8-8.1-1.2l0.2-1.4
			c2.6,0.5,5.3,0.9,8.1,1.2L85.1,336.5z M190.8,121.7c-2.7,0.5-5.4,0.9-8.1,1.3l-0.2-1.4c2.7-0.4,5.4-0.8,8-1.3L190.8,121.7z
			 M168.6,165.5c-2.5,0.7-5.1,1.4-7.9,2.1l-0.3-1.4c2.9-0.7,5.4-1.4,7.9-2.1L168.6,165.5z M188.2,103.3l-1.3,0.6
			c-1.2-2.6-2.3-5.1-3.2-7.6l1.3-0.5C185.9,98.2,187,100.8,188.2,103.3z M234.7,1.5c-2.6-0.2-5.4-0.1-8.1,0.1l-0.1-1.4
			c2.8-0.3,5.6-0.3,8.3-0.1L234.7,1.5z M147.3,170.4c-2.6,0.5-5.3,1-8.1,1.4l-0.2-1.4c2.7-0.5,5.4-0.9,8-1.4L147.3,170.4z
			 M169.2,124.5c-2.7,0.2-5.4,0.3-8.2,0.4l0-1.4c2.7-0.1,5.5-0.2,8.1-0.4L169.2,124.5z M63.6,332.5c-2.7-0.7-5.4-1.4-7.9-2.2
			l0.4-1.3c2.5,0.8,5.2,1.5,7.8,2.2L63.6,332.5z M180.5,82.8l-1.3,0.4c-0.8-2.7-1.4-5.4-2-8.1l1.4-0.3
			C179.1,77.4,179.8,80.1,180.5,82.8z M213.5,4.4c-2.6,0.9-5.1,1.9-7.5,3.1l-0.6-1.3c2.4-1.2,5-2.3,7.6-3.2L213.5,4.4z M125.8,174
			c-2.7,0.4-5.4,0.9-8.1,1.3l-0.2-1.4c2.7-0.5,5.4-0.9,8.1-1.3L125.8,174z M147.3,124.8c-2.7-0.1-5.5-0.3-8.2-0.5l0.1-1.4
			c2.7,0.2,5.4,0.4,8.1,0.5L147.3,124.8z M176.8,61.3l-1.4,0.1c-0.1-2.8-0.1-5.6,0-8.3l1.4,0.1C176.7,55.8,176.7,58.5,176.8,61.3z
			 M42.8,325.7c-2.3-1-4.5-2-6.6-3.1l-0.9-0.4l0.6-1.2l0.8,0.4c2.1,1.1,4.3,2.1,6.5,3L42.8,325.7z M194.8,14.9c-2,1.8-4,3.7-5.7,5.8
			l-1.1-0.9c1.8-2.1,3.7-4.1,5.8-5.9L194.8,14.9z M179.1,39.7l-1.3-0.4c0.8-2.7,1.8-5.3,2.9-7.8l1.3,0.6
			C180.8,34.5,179.9,37.1,179.1,39.7z M104.3,177.7c-2.7,0.5-5.3,1-8,1.6l-0.3-1.4c2.7-0.6,5.4-1.1,8-1.6L104.3,177.7z M125.6,122.6
			c-2.7-0.4-5.4-0.9-8.1-1.5l0.3-1.4c2.6,0.5,5.3,1,8,1.5L125.6,122.6z M24.5,313.7l-0.8,1.1c-2.2-1.7-4.4-3.5-6.3-5.4l1-1
			C20.2,310.3,22.3,312.1,24.5,313.7z M83,182.3c-2.7,0.7-5.3,1.4-7.9,2.1l-0.4-1.4c2.5-0.7,5.2-1.5,7.9-2.2L83,182.3z M104.2,117.7
			c-2.7-0.8-5.3-1.7-7.8-2.7l0.5-1.3c2.4,0.9,5,1.8,7.7,2.7L104.2,117.7z M9.8,298l-1.2,0.8c-1.5-2.3-2.8-4.8-3.9-7.4l1.3-0.6
			C7.1,293.3,8.3,295.8,9.8,298z M62.3,188.7c-2.6,1-5.1,2-7.6,3.1l-0.6-1.3c2.4-1.1,5-2.1,7.6-3.1L62.3,188.7z M42.6,197.9
			c-2.4,1.4-4.7,2.8-6.9,4.3l-0.8-1.2c2.2-1.5,4.6-3,7-4.4L42.6,197.9z M2.2,277.9l-1.4,0.2c-0.4-2.7-0.7-5.5-0.8-8.3l1.4,0
			C1.5,272.5,1.7,275.3,2.2,277.9z M84.9,107.6l-0.7,1.2c-2.3-1.4-4.7-2.9-6.9-4.5l0.8-1.2C80.3,104.8,82.6,106.2,84.9,107.6z
			 M25.2,210.7c-1.5,1.4-3,2.9-4.4,4.5c-0.4,0.4-0.8,0.9-1.2,1.4l-1.1-0.9c0.4-0.5,0.9-1,1.3-1.5c1.4-1.6,2.9-3.1,4.4-4.5
			L25.2,210.7z M2.3,256.2L1,256c0.4-2.7,1-5.4,1.8-8.1l1.3,0.4C3.3,250.9,2.8,253.6,2.3,256.2z M8.5,235.3l-1.3-0.6
			c1.1-2.6,2.4-5.1,3.6-7.5l1.2,0.7C10.9,230.2,9.6,232.8,8.5,235.3z"/>
	</g>
	<g>
		<path fill="#FFFFFF" d="M102.5,420.4c-0.9,1-1.8,2.1-2.8,3.2l-1-0.9c0.9-1.1,1.9-2.1,2.7-3.2L102.5,420.4z"/>
	</g>
</g>
</svg>
