<?xml version="1.0" encoding="utf-8"?>
<!-- Generator: Adobe Illustrator 17.1.0, SVG Export Plug-In . SVG Version: 6.00 Build 0)  -->
<!DOCTYPE svg PUBLIC "-//W3C//DTD SVG 1.1//EN" "http://www.w3.org/Graphics/SVG/1.1/DTD/svg11.dtd">
<svg version="1.1" id="Layer_1" xmlns="http://www.w3.org/2000/svg" xmlns:xlink="http://www.w3.org/1999/xlink" x="0px" y="0px"
	 viewBox="0 0 341.1 179.3" enable-background="new 0 0 341.1 179.3" xml:space="preserve">
<linearGradient id="SVGID_1_" gradientUnits="userSpaceOnUse" x1="255.0451" y1="427.0004" x2="224.5351" y2="353.6766" gradientTransform="matrix(1 5.528311e-03 -5.528311e-03 1 -10.5118 -294.929)">
	<stop  offset="0" style="stop-color:#DCDCD2"/>
	<stop  offset="0" style="stop-color:#A5A394"/>
	<stop  offset="9.096100e-04" style="stop-color:#EDECE1"/>
	<stop  offset="2.438650e-03" style="stop-color:#A9A99A"/>
	<stop  offset="6.665130e-02" style="stop-color:#808285"/>
	<stop  offset="0.2971" style="stop-color:#939598"/>
	<stop  offset="0.3526" style="stop-color:#9B9DA0"/>
	<stop  offset="0.4435" style="stop-color:#A3A5A8"/>
	<stop  offset="0.4815" style="stop-color:#B6B8BA"/>
	<stop  offset="0.5423" style="stop-color:#D0D2D4"/>
	<stop  offset="0.5935" style="stop-color:#E0E2E3"/>
	<stop  offset="0.6287" style="stop-color:#E6E7E8"/>
	<stop  offset="0.6711" style="stop-color:#E3E4E5"/>
	<stop  offset="0.7101" style="stop-color:#DADBDD"/>
	<stop  offset="0.7479" style="stop-color:#CACCCE"/>
	<stop  offset="0.7847" style="stop-color:#B5B7B9"/>
	<stop  offset="0.8039" style="stop-color:#A7A9AC"/>
	<stop  offset="1" style="stop-color:#A5A394"/>
</linearGradient>
<polygon fill="url(#SVGID_1_)" points="118.5,112.4 124.7,173.2 339,43.3 339,43.3 "/>
<linearGradient id="SVGID_2_" gradientUnits="userSpaceOnUse" x1="161.9198" y1="246.7954" x2="214.8902" y2="361.2627" gradientTransform="matrix(1 5.528311e-03 -5.528311e-03 1 -10.5118 -294.929)">
	<stop  offset="0" style="stop-color:#DCDCD2"/>
	<stop  offset="0" style="stop-color:#A5A394"/>
	<stop  offset="9.096100e-04" style="stop-color:#EDECE1"/>
	<stop  offset="2.438650e-03" style="stop-color:#A9A99A"/>
	<stop  offset="4.653590e-03" style="stop-color:#D9D8CE"/>
	<stop  offset="4.653590e-03" style="stop-color:#D6D5CB"/>
	<stop  offset="4.653590e-03" style="stop-color:#D4D4C8"/>
	<stop  offset="5.029080e-03" style="stop-color:#C0BEAF"/>
	<stop  offset="7.434330e-03" style="stop-color:#B3B2A5"/>
	<stop  offset="9.927010e-03" style="stop-color:#E3E1D2"/>
	<stop  offset="3.867140e-02" style="stop-color:#DEDCCD"/>
	<stop  offset="0.3387" style="stop-color:#BCBEC0"/>
	<stop  offset="0.9375" style="stop-color:#F1F2F2"/>
</linearGradient>
<polygon fill="url(#SVGID_2_)" points="335.1,45.3 63,75 112.5,114.4 "/>
<g>
	<path fill="#EF3A56" d="M10.4,115.8L2.3,97.1l-0.1,0c0.2,1.7,0.3,3.7,0.4,6l0.5,15.5l-2.3,0.9L0,95.2l3.8-1.5l7.5,17.4l0.1,0
		l6.2-22.8l3.7-1.5l0.8,24.3l-2.5,1l-0.5-15.7c-0.1-1.8-0.1-3.8,0-5.9l-0.1,0L12.4,115L10.4,115.8z"/>
	<path fill="#EF3A56" d="M41.6,103.4l-3-6.7l-8.6,3.4l-2.4,8.8l-2.5,1l7.7-27.8l2.1-0.8l9.3,21.1L41.6,103.4z M37.8,94.5L35,87.9
		c-0.4-0.8-0.7-1.9-1.1-3.1c-0.2,1.2-0.4,2.4-0.8,3.9l-2.3,8.5L37.8,94.5z"/>
	<path fill="#EF3A56" d="M60.3,78.5c0.1,2.5-0.6,4.7-2,6.6c-1.4,1.9-3.5,3.4-6.3,4.5l-2.5,1l0.3,9.6l-2.5,1l-0.8-24.3l5.6-2.2
		C57.3,72.5,60.1,73.8,60.3,78.5z M49.3,88.2l2.3-0.9c2.2-0.9,3.8-1.9,4.8-3.1c1-1.2,1.4-2.7,1.4-4.5c-0.1-1.6-0.6-2.6-1.5-3
		c-1-0.4-2.4-0.2-4.4,0.6l-2.8,1.1L49.3,88.2z"/>
	<path fill="#EF3A56" d="M78.4,71.3c0.1,2.5-0.6,4.7-2,6.6c-1.4,1.9-3.5,3.4-6.3,4.5l-2.5,1l0.3,9.6l-2.5,1l-0.8-24.3l5.6-2.2
		C75.5,65.3,78.3,66.6,78.4,71.3z M67.4,81l2.3-0.9c2.2-0.9,3.8-1.9,4.8-3.1c1-1.2,1.4-2.7,1.4-4.5c-0.1-1.6-0.6-2.6-1.5-3
		c-1-0.4-2.4-0.2-4.4,0.6l-2.8,1.1L67.4,81z"/>
	<path fill="#EF3A56" d="M83.5,86.7l-0.8-24.3l2.5-1L86,85.7L83.5,86.7z"/>
	<path fill="#EF3A56" d="M108.8,76.7l-2.9,1.1L93.4,62.1l-0.1,0c0.2,2.3,0.4,4.5,0.5,6.5l0.5,13.8l-2.3,0.9l-0.8-24.3l2.8-1.1
		l12.5,15.7l0.1,0c0-0.3-0.1-1.2-0.2-2.8c-0.1-1.6-0.2-2.7-0.2-3.5l-0.5-14l2.3-0.9L108.8,76.7z"/>
	<path fill="#EF3A56" d="M123.7,57.9l7.3-2.9l0.4,11.8c-1.1,0.9-2.3,1.6-3.4,2.3c-1.2,0.7-2.5,1.3-4.1,1.9c-3.3,1.3-5.8,1.2-7.7-0.3
		c-1.9-1.5-2.9-4.2-3-8.1c-0.1-2.5,0.3-4.9,1.1-7.2c0.8-2.3,2.1-4.2,3.7-5.9c1.7-1.7,3.6-3,5.9-3.9c2.3-0.9,4.5-1.3,6.5-1.1
		l-0.9,2.9c-2-0.2-3.9,0.1-5.7,0.8c-2.6,1-4.6,2.7-6.1,5.1c-1.4,2.3-2.1,5.1-2,8.2c0.1,3.3,0.9,5.5,2.4,6.6s3.6,1.2,6.3,0.1
		c1.5-0.6,2.9-1.4,4.4-2.3l-0.3-7.5l-4.8,1.9L123.7,57.9z"/>
	<path fill="#EF3A56" d="M149.6,48.2l5.3-14.4l2.7-1.1l-6.7,17.7l0.3,9.4l-2.5,1l-0.3-9.3l-7.7-12.2l2.7-1.1L149.6,48.2z"/>
	<path fill="#EF3A56" d="M179.7,36.2c0.1,3.9-0.6,7.3-2.3,10.2c-1.7,2.9-4.1,5-7.2,6.2c-3.2,1.3-5.7,1.1-7.5-0.4
		c-1.8-1.5-2.8-4.3-2.9-8.2c-0.1-4,0.6-7.4,2.3-10.2c1.7-2.9,4.1-4.9,7.3-6.2c3.1-1.2,5.5-1.1,7.4,0.4
		C178.6,29.6,179.6,32.3,179.7,36.2z M162.5,43c0.1,3.3,0.8,5.5,2.1,6.8c1.3,1.2,3.1,1.3,5.5,0.4c2.4-0.9,4.2-2.5,5.3-4.7
		c1.2-2.2,1.7-4.9,1.6-8.2c-0.1-3.3-0.8-5.5-2.1-6.7c-1.3-1.2-3.1-1.3-5.5-0.4c-2.4,0.9-4.2,2.5-5.4,4.7
		C162.9,37.1,162.4,39.8,162.5,43z"/>
	<path fill="#EF3A56" d="M200.3,15.7l0.5,15.7c0.1,2.8-0.6,5.2-2,7.4c-1.4,2.2-3.4,3.8-6,4.8c-2.6,1-4.6,1-6.1,0
		c-1.5-1-2.3-2.9-2.4-5.7l-0.5-15.7l2.5-1l0.6,15.9c0.1,2,0.6,3.4,1.6,4.1c1,0.7,2.5,0.7,4.4-0.1c1.8-0.7,3.2-1.8,4.1-3.3
		c0.9-1.5,1.4-3.2,1.3-5.3l-0.6-15.8L200.3,15.7z"/>
	<path fill="#EF3A56" d="M209,26.7l0.4,10.1l-2.5,1L206,13.5l5.9-2.3c2.6-1,4.6-1.3,5.9-0.6c1.3,0.6,2,2.1,2.1,4.4
		c0.1,3.2-1.3,6-4.1,8.2l6.2,8.6l-3,1.2l-5.6-8L209,26.7z M209,24.2l3.4-1.4c1.8-0.7,3.1-1.6,3.8-2.7c0.8-1.1,1.2-2.5,1.1-4.1
		c-0.1-1.6-0.5-2.6-1.4-3c-0.9-0.4-2.2-0.2-4.1,0.5l-3.3,1.3L209,24.2z"/>
</g>
<g>
	<path fill="#EF3A56" d="M57.8,171.1l-13.4,5.7l-3.6-56.3l29.7-12.6l0.8,12.2L55,127l0.7,10.7l15.1-6.4l0.8,12.2L56.4,150
		L57.8,171.1z"/>
	<path fill="#EF3A56" d="M121.5,86.3l2.2,33.9c0.5,7.4-1,13.9-4.5,19.5c-3.5,5.6-8.7,9.9-15.7,12.9c-6.9,2.9-12.3,3.2-16.2,0.8
		c-3.9-2.4-6.1-7.2-6.6-14.6l-2.2-34.2l13.7-5.8l2.1,33.1c0.3,4,1.1,6.6,2.6,7.8s3.5,1.3,6.1,0.2c2.8-1.2,4.7-2.9,5.9-5.2
		c1.1-2.3,1.6-5.5,1.3-9.6l-2.1-33L121.5,86.3z"/>
	<path fill="#EF3A56" d="M157.9,128.8l-13.6,5.7l-2.8-43.9l-12.3,5.2l-0.8-12.4l38.1-16.1l0.8,12.4l-12.2,5.2L157.9,128.8z"/>
	<path fill="#EF3A56" d="M216.5,46.2l2.2,33.9c0.5,7.4-1,13.9-4.5,19.5s-8.7,9.9-15.7,12.9c-6.9,2.9-12.3,3.2-16.2,0.8
		c-3.9-2.4-6.1-7.2-6.6-14.6l-2.2-34.2l13.7-5.8l2.1,33.1c0.3,4,1.1,6.6,2.6,7.8c1.4,1.2,3.5,1.3,6.1,0.2c2.8-1.2,4.7-2.9,5.9-5.2
		c1.1-2.3,1.6-5.5,1.3-9.6l-2.1-33L216.5,46.2z"/>
	<path fill="#EF3A56" d="M242.9,71.8l1.3,20.5L230.6,98L227,41.7l16.5-7c13.7-5.8,20.9-3.1,21.6,8c0.4,6.5-2.1,12.8-7.6,18.7
		l16.2,18.3l-15.4,6.5l-12-16L242.9,71.8z M242.2,60.3l2.5-1.1c4.7-2,7-5.4,6.7-10.1c-0.2-3.9-2.7-4.8-7.4-2.9l-2.7,1.1L242.2,60.3z
		"/>
	<path fill="#EF3A56" d="M308.2,65.2l-29.9,12.6l-3.6-56.3l29.9-12.6l0.8,12.2L289.1,28l0.6,8.9l15.1-6.4l0.8,12.2l-15.1,6.4
		l0.7,10.6l16.3-6.9L308.2,65.2z"/>
	<path fill="#EF3A56" d="M326.2,37.2L314.8,42l-4.1-35.7L325.6,0L326.2,37.2z M314.1,56.2c-0.2-2.3,0.4-4.4,1.5-6.2
		c1.2-1.8,2.9-3.2,5.3-4.2c2.3-1,4.2-1.1,5.4-0.3c1.3,0.8,2,2.4,2.2,4.7c0.1,2.3-0.4,4.4-1.5,6.2c-1.2,1.8-2.9,3.2-5.1,4.2
		c-2.3,1-4.1,1.1-5.5,0.3C315,60,314.2,58.5,314.1,56.2z"/>
</g>
<linearGradient id="SVGID_3_" gradientUnits="userSpaceOnUse" x1="177.7567" y1="428.3113" x2="149.6441" y2="447.8248" gradientTransform="matrix(1 5.528311e-03 -5.528311e-03 1 -10.5118 -294.929)">
	<stop  offset="0.3183" style="stop-color:#939598"/>
	<stop  offset="0.58" style="stop-color:#E6E7E8"/>
	<stop  offset="1" style="stop-color:#EEEDE4"/>
</linearGradient>
<polygon fill="url(#SVGID_3_)" points="141.7,133.7 125.9,173.2 171.8,146.2 "/>
<linearGradient id="SVGID_4_" gradientUnits="userSpaceOnUse" x1="309.572" y1="450.8513" x2="262.5667" y2="399.0128" gradientTransform="matrix(1 1.224011e-02 -1.224011e-02 1 -10.6841 -307.8373)">
	<stop  offset="0" style="stop-color:#D1D3D4"/>
	<stop  offset="2.438650e-03" style="stop-color:#A9A99A"/>
	<stop  offset="4.653590e-03" style="stop-color:#D9D8CE"/>
	<stop  offset="4.653590e-03" style="stop-color:#D6D5CB"/>
	<stop  offset="4.653590e-03" style="stop-color:#D4D4C8"/>
	<stop  offset="5.029080e-03" style="stop-color:#C0BEAF"/>
	<stop  offset="3.126970e-02" style="stop-color:#B1B0A2"/>
	<stop  offset="0.4402" style="stop-color:#E6E7E8"/>
	<stop  offset="1" style="stop-color:#FFFFFF"/>
	<stop  offset="1" style="stop-color:#E2DFCF"/>
</linearGradient>
<polyline fill="url(#SVGID_4_)" points="142.6,133.7 341.1,43.3 202.7,179.3 "/>
</svg>
