<?xml version="1.0" encoding="utf-8"?>
<!-- Generator: Adobe Illustrator 17.1.0, SVG Export Plug-In . SVG Version: 6.00 Build 0)  -->
<!DOCTYPE svg PUBLIC "-//W3C//DTD SVG 1.1//EN" "http://www.w3.org/Graphics/SVG/1.1/DTD/svg11.dtd">
<svg version="1.1" id="Layer_1" xmlns="http://www.w3.org/2000/svg" xmlns:xlink="http://www.w3.org/1999/xlink" x="0px" y="0px"
	 viewBox="-4 0 440 403" enable-background="new -4 0 440 403" xml:space="preserve">
<g>
	<path fill="#FFFFFF" d="M61.5,90.9c-0.1-0.9-0.3-1.9-0.4-2.8l0.5-0.1c0.2,0.9,0.3,1.9,0.4,2.8L61.5,90.9z M62.6,98.5l-0.5,0
		c0-0.9-0.1-1.9-0.2-2.8l0.5,0C62.5,96.6,62.6,97.6,62.6,98.5z M60.2,83.4l0-0.1c-0.2-0.9-0.4-1.8-0.6-2.7l0.5-0.1
		c0.2,0.9,0.5,1.9,0.6,2.7l0,0.1L60.2,83.4z M66.4,131.9h-0.5c0-0.6-0.1-1.1-0.1-1.7c0-0.3-0.1-0.7-0.2-1.1l0.5-0.1
		c0.1,0.4,0.1,0.8,0.2,1.1C66.3,130.7,66.4,131.3,66.4,131.9z M62.6,106.2l-0.5,0c0-0.9,0.1-1.9,0.1-2.8h0.5
		C62.7,104.3,62.6,105.3,62.6,106.2z M64.2,124.6c-0.4-0.8-0.8-1.7-1.3-2.5l0.4-0.3c0.5,0.8,1,1.7,1.4,2.6L64.2,124.6z M58.3,75.9
		c-0.3-0.9-0.6-1.8-0.9-2.7l0.5-0.2c0.3,0.9,0.6,1.8,0.9,2.7L58.3,75.9z M65.1,139.5l-0.5-0.2c0.3-0.9,0.6-1.8,0.8-2.7l0.5,0.1
		C65.7,137.6,65.4,138.6,65.1,139.5z M61.6,113.9l-0.5-0.1c0.2-0.9,0.3-1.9,0.5-2.8l0.5,0.1C62,112,61.8,112.9,61.6,113.9z
		 M55.6,68.8c-0.4-0.9-0.8-1.7-1.1-2.6l0.5-0.2c0.4,0.9,0.8,1.8,1.1,2.7L55.6,68.8z M59.6,121.3l-0.5-0.2c0.3-0.9,0.6-1.8,0.9-2.7
		l0.5,0.2C60.2,119.5,60,120.4,59.6,121.3z M60,118.3c-0.6-0.7-1.3-1.4-2.1-2l0.3-0.3c0.7,0.6,1.4,1.3,2.1,2L60,118.3z M61.3,146.3
		l-0.4-0.3c0.6-0.8,1.1-1.6,1.6-2.4l0.4,0.3C62.4,144.7,61.9,145.5,61.3,146.3z M52.4,61.8C52,61,51.5,60.1,51,59.3l0.4-0.2
		c0.5,0.8,0.9,1.7,1.3,2.6L52.4,61.8z M56.3,128.3l-0.4-0.3c0.5-0.8,0.9-1.6,1.4-2.5l0.4,0.2C57.3,126.6,56.8,127.5,56.3,128.3z
		 M72.3,273.5l-0.1-0.5c0.9-0.2,1.9-0.3,2.8-0.5l0.1,0.5C74.2,273.3,73.3,273.4,72.3,273.5z M48.7,55.1c-0.5-0.8-1-1.7-1.5-2.5
		l0.4-0.3c0.5,0.8,1,1.6,1.5,2.5L48.7,55.1z M54.1,113.4c-0.8-0.5-1.6-1-2.5-1.4l0.2-0.4c0.9,0.5,1.7,0.9,2.5,1.4L54.1,113.4z
		 M56.1,152l-0.3-0.3c0.7-0.6,1.4-1.3,2.1-2l0.3,0.3C57.5,150.6,56.8,151.3,56.1,152z M44.6,48.6c-0.5-0.8-1.1-1.6-1.7-2.4l0.4-0.3
		c0.6,0.8,1.1,1.6,1.7,2.4L44.6,48.6z M51.5,134.3l-0.3-0.3c0.7-0.6,1.3-1.3,1.9-2.1l0.4,0.3C52.8,132.9,52.1,133.6,51.5,134.3z
		 M40,42.4c-0.6-0.8-1.2-1.5-1.8-2.2l0.4-0.3c0.6,0.7,1.3,1.4,1.9,2.2L40,42.4z M67.5,274.1c-0.9,0.1-1.9,0.2-2.9,0.3l0-0.5
		c0.9-0.1,1.9-0.2,2.8-0.3L67.5,274.1z M47.3,110.2c-0.9-0.3-1.8-0.6-2.7-0.8l0.1-0.5c0.9,0.2,1.9,0.5,2.8,0.8L47.3,110.2z
		 M50.1,156.8l-0.3-0.4c0.8-0.6,1.6-1.1,2.3-1.7l0.3,0.4C51.7,155.6,50.9,156.2,50.1,156.8z M45.2,138.7l-0.2-0.4
		c0.8-0.4,1.7-0.9,2.5-1.4l0.3,0.4C46.9,137.8,46,138.3,45.2,138.7z M34.9,36.7c-0.7-0.7-1.4-1.4-2.1-2l0.3-0.3
		c0.7,0.6,1.4,1.3,2.1,2L34.9,36.7z M59.9,274.7c-1,0-1.9,0-2.9,0v-0.5c0.9,0,1.9,0,2.9,0V274.7z M43.7,161.1l-0.3-0.4
		c0.8-0.5,1.6-1.1,2.4-1.6l0.3,0.4C45.3,160,44.5,160.5,43.7,161.1z M39.8,108.7c-0.9,0-1.9,0-2.8,0l0-0.5c0.9-0.1,1.9-0.1,2.9,0
		L39.8,108.7z M29.2,31.6c-0.8-0.6-1.6-1.1-2.3-1.7l0.3-0.4c0.8,0.5,1.6,1.1,2.4,1.7L29.2,31.6z M38.4,140.8c-0.2,0-0.4,0-0.6,0.1
		l0-0.5c0.2,0,0.4,0,0.6-0.1c0.7-0.1,1.5-0.2,2.2-0.4l0.1,0.5C39.9,140.6,39.1,140.7,38.4,140.8z M37.5,165.5l-0.3-0.4
		c0.8-0.6,1.6-1.1,2.4-1.7l0.3,0.4C39,164.4,38.2,164.9,37.5,165.5z M22.8,27.5c-0.9-0.4-1.7-0.8-2.6-1.1l0.2-0.5
		c0.9,0.3,1.8,0.7,2.7,1.1L22.8,27.5z M52.2,274.6c-0.9,0-1.9-0.1-2.9-0.2l0-0.5c0.9,0.1,1.9,0.2,2.8,0.2V274.6z M29.7,110.7
		l-0.2-0.4c0.8-0.5,1.7-0.8,2.7-1.1l0.2,0.5C31.4,109.9,30.5,110.2,29.7,110.7z M32.9,140.6c-1-0.2-1.9-0.5-2.8-0.8l0.2-0.5
		c0.9,0.3,1.8,0.6,2.7,0.8L32.9,140.6z M31.4,170.1l-0.3-0.4c0.7-0.6,1.5-1.2,2.2-1.8l0.3,0.4C32.9,169,32.1,169.5,31.4,170.1z
		 M15.6,25.4c-0.9-0.1-1.9-0.2-2.8-0.1l0-0.5c0.9,0,1.9,0,2.9,0.1L15.6,25.4z M24.4,115.9l-0.4-0.2c0.5-0.8,1.1-1.6,1.7-2.4l0.3,0.3
		C25.4,114.3,24.8,115,24.4,115.9z M44.6,273.9c-0.9-0.2-1.9-0.3-2.8-0.5l0.1-0.5c0.9,0.2,1.9,0.3,2.8,0.5L44.6,273.9z M25.9,137.3
		c-0.7-0.6-1.4-1.4-1.9-2.2l0.4-0.3c0.5,0.8,1.2,1.5,1.9,2.1L25.9,137.3z M22,123l-0.5-0.1c0.2-1,0.3-1.9,0.6-2.8l0.5,0.1
		C22.3,121.1,22.1,122.1,22,123z M25.6,175.1l-0.3-0.3c0.7-0.6,1.4-1.3,2.2-1.9l0.3,0.4C27,173.9,26.2,174.5,25.6,175.1z
		 M21.9,130.7c-0.3-0.9-0.4-1.9-0.5-2.9l0.5,0c0.1,0.9,0.3,1.9,0.5,2.8L21.9,130.7z M5.5,27.2l-0.2-0.4C6.2,26.3,7.1,26,8,25.7
		l0.2,0.5C7.2,26.4,6.3,26.8,5.5,27.2z M37,272.3c-0.9-0.3-1.9-0.5-2.8-0.8l0.2-0.5c0.9,0.3,1.8,0.6,2.7,0.8L37,272.3z M20,180.4
		l-0.3-0.3c0.6-0.7,1.4-1.4,2.1-2.1l0.3,0.3C21.4,179.1,20.7,179.8,20,180.4z M29.7,269.8c-0.9-0.4-1.8-0.8-2.6-1.2l0.2-0.4
		c0.8,0.4,1.7,0.8,2.6,1.2L29.7,269.8z M14.9,186.1l-0.4-0.3c0.6-0.7,1.3-1.4,1.9-2.2l0.3,0.3C16.1,184.7,15.5,185.4,14.9,186.1z
		 M22.9,266.2c-0.8-0.5-1.6-1.1-2.4-1.6l0.3-0.4c0.8,0.5,1.6,1.1,2.4,1.6L22.9,266.2z M10.2,192.2l-0.4-0.3c0.5-0.8,1.1-1.6,1.7-2.3
		l0.4,0.3C11.3,190.6,10.7,191.4,10.2,192.2z M16.7,261.6c-0.7-0.6-1.4-1.3-2.1-2l0.3-0.3c0.7,0.7,1.4,1.3,2.1,1.9L16.7,261.6z
		 M6.2,198.6l-0.4-0.2c0.5-0.8,0.9-1.7,1.4-2.5l0.4,0.3C7.1,197,6.6,197.8,6.2,198.6z M11.4,256.1c-0.6-0.7-1.2-1.5-1.8-2.3l0.4-0.3
		c0.6,0.8,1.1,1.5,1.7,2.3L11.4,256.1z M2.8,205.5l-0.5-0.2c0.3-0.9,0.8-1.8,1.1-2.7l0.4,0.2C3.6,203.8,3.2,204.6,2.8,205.5z
		 M7,249.8c-0.5-0.8-0.9-1.7-1.4-2.5L6,247c0.5,0.8,0.9,1.7,1.4,2.5L7,249.8z M0.5,212.8L0,212.6c0.2-0.9,0.5-1.9,0.8-2.8l0.5,0.2
		C0.9,210.9,0.7,211.9,0.5,212.8z M3.5,242.9c-0.4-0.9-0.7-1.8-1.1-2.7l0.5-0.2c0.3,0.9,0.7,1.8,1,2.7L3.5,242.9z M-0.6,220.3h-0.5
		c0-0.9,0.1-1.9,0.2-2.9l0.5,0.1C-0.5,218.5-0.6,219.4-0.6,220.3z M1,235.6c-0.3-0.9-0.5-1.9-0.7-2.8l0.5-0.1
		c0.2,0.9,0.5,1.9,0.7,2.8L1,235.6z M-0.2,227c0,0.3,0.1,0.6,0.1,0.9l-0.5,0.1c0-0.3-0.1-0.6-0.1-0.9c-0.1-0.9-0.2-1.6-0.2-2l0.5,0
		C-0.3,225.5-0.3,226.2-0.2,227z"/>
</g>
<g>
	
		<linearGradient id="SVGID_1_" gradientUnits="userSpaceOnUse" x1="255.5463" y1="-508.0345" x2="237.4353" y2="-464.5089" gradientTransform="matrix(0.3788 -2.734937e-02 -2.734937e-02 -0.3788 1.5926 73.8982)">
		<stop  offset="0" style="stop-color:#DCDCD2"/>
		<stop  offset="0" style="stop-color:#A5A394"/>
		<stop  offset="9.096100e-04" style="stop-color:#EDECE1"/>
		<stop  offset="2.438650e-03" style="stop-color:#A9A99A"/>
		<stop  offset="6.665130e-02" style="stop-color:#808285"/>
		<stop  offset="0.2971" style="stop-color:#939598"/>
		<stop  offset="0.3526" style="stop-color:#9B9DA0"/>
		<stop  offset="0.4435" style="stop-color:#A3A5A8"/>
		<stop  offset="0.4815" style="stop-color:#B6B8BA"/>
		<stop  offset="0.5423" style="stop-color:#D0D2D4"/>
		<stop  offset="0.5935" style="stop-color:#E0E2E3"/>
		<stop  offset="0.6287" style="stop-color:#E6E7E8"/>
		<stop  offset="0.6711" style="stop-color:#E3E4E5"/>
		<stop  offset="0.7101" style="stop-color:#DADBDD"/>
		<stop  offset="0.7479" style="stop-color:#CACCCE"/>
		<stop  offset="0.7847" style="stop-color:#B5B7B9"/>
		<stop  offset="0.8039" style="stop-color:#A7A9AC"/>
		<stop  offset="1" style="stop-color:#A5A394"/>
	</linearGradient>
	<polygon fill="url(#SVGID_1_)" points="84.1,256.8 86.6,270.4 132.5,237.4 132.5,237.4 	"/>
	
		<linearGradient id="SVGID_2_" gradientUnits="userSpaceOnUse" x1="209.6695" y1="-508.8434" x2="192.9816" y2="-520.4268" gradientTransform="matrix(0.3788 -2.734937e-02 -2.734937e-02 -0.3788 1.5926 73.8982)">
		<stop  offset="0.3183" style="stop-color:#939598"/>
		<stop  offset="0.58" style="stop-color:#E6E7E8"/>
		<stop  offset="1" style="stop-color:#EEEDE4"/>
	</linearGradient>
	<polygon fill="url(#SVGID_2_)" points="89.7,261.2 86.9,270.3 96.7,263.5 	"/>
	
		<linearGradient id="SVGID_3_" gradientUnits="userSpaceOnUse" x1="283.0005" y1="-526.6395" x2="255.0977" y2="-495.8677" gradientTransform="matrix(0.379 -2.480649e-02 -2.480649e-02 -0.379 3.7005 68.8902)">
		<stop  offset="0" style="stop-color:#D1D3D4"/>
		<stop  offset="2.438650e-03" style="stop-color:#A9A99A"/>
		<stop  offset="4.653590e-03" style="stop-color:#D9D8CE"/>
		<stop  offset="4.653590e-03" style="stop-color:#D6D5CB"/>
		<stop  offset="4.653590e-03" style="stop-color:#D4D4C8"/>
		<stop  offset="5.029080e-03" style="stop-color:#C0BEAF"/>
		<stop  offset="3.126970e-02" style="stop-color:#B1B0A2"/>
		<stop  offset="0.4402" style="stop-color:#E6E7E8"/>
		<stop  offset="1" style="stop-color:#FFFFFF"/>
		<stop  offset="1" style="stop-color:#E2DFCF"/>
	</linearGradient>
	<polyline fill="url(#SVGID_3_)" points="89.9,261.2 132.9,237.4 104.2,270.4 	"/>
	
		<linearGradient id="SVGID_4_" gradientUnits="userSpaceOnUse" x1="203.8157" y1="-399.8582" x2="235.2594" y2="-467.807" gradientTransform="matrix(0.3788 -2.734937e-02 -2.734937e-02 -0.3788 1.5926 73.8982)">
		<stop  offset="0" style="stop-color:#DCDCD2"/>
		<stop  offset="0" style="stop-color:#A5A394"/>
		<stop  offset="9.096100e-04" style="stop-color:#EDECE1"/>
		<stop  offset="2.438650e-03" style="stop-color:#A9A99A"/>
		<stop  offset="4.653590e-03" style="stop-color:#D9D8CE"/>
		<stop  offset="4.653590e-03" style="stop-color:#D6D5CB"/>
		<stop  offset="4.653590e-03" style="stop-color:#D4D4C8"/>
		<stop  offset="5.029080e-03" style="stop-color:#C0BEAF"/>
		<stop  offset="7.434330e-03" style="stop-color:#B3B2A5"/>
		<stop  offset="9.927010e-03" style="stop-color:#E3E1D2"/>
		<stop  offset="3.867140e-02" style="stop-color:#DEDCCD"/>
		<stop  offset="0.3387" style="stop-color:#BCBEC0"/>
		<stop  offset="0.9375" style="stop-color:#F1F2F2"/>
	</linearGradient>
	<polygon fill="url(#SVGID_4_)" points="132.9,237.4 72.3,248.8 84.1,256.8 	"/>
</g>
<g>
	
		<linearGradient id="SVGID_5_" gradientUnits="userSpaceOnUse" x1="938.8853" y1="-338.1582" x2="927.1537" y2="-309.9638" gradientTransform="matrix(-0.3784 3.309983e-02 -3.309983e-02 -0.3784 703.772 19.8218)">
		<stop  offset="0" style="stop-color:#DCDCD2"/>
		<stop  offset="0" style="stop-color:#A5A394"/>
		<stop  offset="9.096100e-04" style="stop-color:#EDECE1"/>
		<stop  offset="2.438650e-03" style="stop-color:#A9A99A"/>
		<stop  offset="6.665130e-02" style="stop-color:#808285"/>
		<stop  offset="0.2971" style="stop-color:#939598"/>
		<stop  offset="0.3526" style="stop-color:#9B9DA0"/>
		<stop  offset="0.4435" style="stop-color:#A3A5A8"/>
		<stop  offset="0.4815" style="stop-color:#B6B8BA"/>
		<stop  offset="0.5423" style="stop-color:#D0D2D4"/>
		<stop  offset="0.5935" style="stop-color:#E0E2E3"/>
		<stop  offset="0.6287" style="stop-color:#E6E7E8"/>
		<stop  offset="0.6711" style="stop-color:#E3E4E5"/>
		<stop  offset="0.7101" style="stop-color:#DADBDD"/>
		<stop  offset="0.7479" style="stop-color:#CACCCE"/>
		<stop  offset="0.7847" style="stop-color:#B5B7B9"/>
		<stop  offset="0.8039" style="stop-color:#A7A9AC"/>
		<stop  offset="1" style="stop-color:#A5A394"/>
	</linearGradient>
	<polygon fill="url(#SVGID_5_)" points="377.4,174.3 377.3,183.2 344.5,166.9 344.5,166.9 	"/>
	
		<linearGradient id="SVGID_6_" gradientUnits="userSpaceOnUse" x1="909.2098" y1="-338.6864" x2="898.4" y2="-346.1897" gradientTransform="matrix(-0.3784 3.309983e-02 -3.309983e-02 -0.3784 703.772 19.8218)">
		<stop  offset="0.3183" style="stop-color:#939598"/>
		<stop  offset="0.58" style="stop-color:#E6E7E8"/>
		<stop  offset="1" style="stop-color:#EEEDE4"/>
	</linearGradient>
	<polygon fill="url(#SVGID_6_)" points="374.3,177.7 377.1,183.2 370.1,179.9 	"/>
	
		<linearGradient id="SVGID_7_" gradientUnits="userSpaceOnUse" x1="954.4673" y1="-349.5231" x2="936.3929" y2="-329.5904" gradientTransform="matrix(-0.3782 3.563931e-02 -3.563931e-02 -0.3782 700.8958 15.2067)">
		<stop  offset="0" style="stop-color:#D1D3D4"/>
		<stop  offset="2.438650e-03" style="stop-color:#A9A99A"/>
		<stop  offset="4.653590e-03" style="stop-color:#D9D8CE"/>
		<stop  offset="4.653590e-03" style="stop-color:#D6D5CB"/>
		<stop  offset="4.653590e-03" style="stop-color:#D4D4C8"/>
		<stop  offset="5.029080e-03" style="stop-color:#C0BEAF"/>
		<stop  offset="3.126970e-02" style="stop-color:#B1B0A2"/>
		<stop  offset="0.4402" style="stop-color:#E6E7E8"/>
		<stop  offset="1" style="stop-color:#FFFFFF"/>
		<stop  offset="1" style="stop-color:#E2DFCF"/>
	</linearGradient>
	<polyline fill="url(#SVGID_7_)" points="374.2,177.7 344.2,166.9 366,185 	"/>
	
		<linearGradient id="SVGID_8_" gradientUnits="userSpaceOnUse" x1="905.3859" y1="-268.0826" x2="925.754" y2="-312.0971" gradientTransform="matrix(-0.3784 3.309983e-02 -3.309983e-02 -0.3784 703.772 19.8218)">
		<stop  offset="0" style="stop-color:#DCDCD2"/>
		<stop  offset="0" style="stop-color:#A5A394"/>
		<stop  offset="9.096100e-04" style="stop-color:#EDECE1"/>
		<stop  offset="2.438650e-03" style="stop-color:#A9A99A"/>
		<stop  offset="4.653590e-03" style="stop-color:#D9D8CE"/>
		<stop  offset="4.653590e-03" style="stop-color:#D6D5CB"/>
		<stop  offset="4.653590e-03" style="stop-color:#D4D4C8"/>
		<stop  offset="5.029080e-03" style="stop-color:#C0BEAF"/>
		<stop  offset="7.434330e-03" style="stop-color:#B3B2A5"/>
		<stop  offset="9.927010e-03" style="stop-color:#E3E1D2"/>
		<stop  offset="3.867140e-02" style="stop-color:#DEDCCD"/>
		<stop  offset="0.3387" style="stop-color:#BCBEC0"/>
		<stop  offset="0.9375" style="stop-color:#F1F2F2"/>
	</linearGradient>
	<polygon fill="url(#SVGID_8_)" points="344.2,166.9 384.2,168 377.4,174.3 	"/>
</g>
<g>
	<path fill="#FFFFFF" d="M432.8,265.7l0,0.6l-0.6,0l0-0.6c0-0.9-0.1-1.8-0.2-2.7l0.6,0C432.7,263.9,432.8,264.8,432.8,265.7z
		 M433,272c0,1.1,0,2.3-0.1,3.4l-0.6,0c0-1.1,0.1-2.2,0.1-3.3L433,272z M432.1,257.4l-0.6,0.1c-0.2-1.1-0.3-2.2-0.5-3.3l0.6-0.1
		C431.8,255.2,432,256.3,432.1,257.4z M430.7,248.5l-0.6,0.1c-0.1-0.7-0.3-1.4-0.4-2.1c-0.1-0.4-0.2-0.8-0.2-1.2l0.5-0.1
		c0.1,0.4,0.2,0.8,0.2,1.2C430.4,247.1,430.6,247.8,430.7,248.5z M432.4,281c-0.2,1.1-0.3,2.2-0.5,3.3l-0.6-0.1
		c0.2-1.1,0.3-2.2,0.5-3.3L432.4,281z M428.7,239.8l-0.5,0.2c-0.3-1.1-0.6-2.2-0.9-3.2l0.5-0.2C428.1,237.6,428.4,238.7,428.7,239.8
		z M430.8,289.8c-0.3,1.1-0.6,2.2-0.9,3.3l-0.5-0.2c0.3-1.1,0.6-2.1,0.9-3.2L430.8,289.8z M426,231.2l-0.5,0.2
		c-0.4-1.1-0.8-2.1-1.2-3.1l0.5-0.2C425.3,229.1,425.7,230.1,426,231.2z M428.1,298.4c-0.4,1-0.8,2.1-1.3,3.1l-0.5-0.2
		c0.5-1,0.9-2.1,1.3-3.1L428.1,298.4z M422.6,222.9l-0.5,0.2c-0.5-1-1-2-1.5-3l0.5-0.3C421.6,220.9,422.1,221.9,422.6,222.9z
		 M424.3,306.5c-0.5,1-1.1,2-1.7,2.9l-0.5-0.3c0.6-0.9,1.1-1.9,1.7-2.9L424.3,306.5z M418.3,215l-0.5,0.3c-0.6-0.9-1.2-1.9-1.8-2.8
		l0.5-0.3C417.1,213.1,417.7,214,418.3,215z M419.6,314.2c-0.6,0.9-1.3,1.8-2,2.7l-0.5-0.3c0.7-0.9,1.3-1.8,2-2.7L419.6,314.2z
		 M413.2,207.6l-0.5,0.3c-0.7-0.9-1.4-1.7-2.1-2.6l0.4-0.4C411.8,205.8,412.5,206.7,413.2,207.6z M414,321.3
		c-0.7,0.8-1.5,1.7-2.2,2.5l-0.4-0.4c0.8-0.8,1.5-1.7,2.2-2.5L414,321.3z M407.3,200.8l-0.4,0.4c-0.8-0.8-1.6-1.6-2.4-2.4l0.4-0.4
		C405.7,199.2,406.5,200,407.3,200.8z M407.9,327.8c-0.8,0.8-1.6,1.6-2.4,2.3l-0.4-0.4c0.8-0.8,1.6-1.6,2.4-2.3L407.9,327.8z
		 M400.7,194.7l-0.3,0.4c-0.9-0.7-1.7-1.4-2.7-2.1l0.3-0.5C398.9,193.3,399.8,194,400.7,194.7z M401.2,333.8
		c-0.8,0.7-1.7,1.4-2.6,2.1l-0.3-0.4c0.9-0.7,1.7-1.4,2.6-2.1L401.2,333.8z M393.3,189.5L393,190c-0.9-0.6-1.9-1.2-2.9-1.7l0.3-0.5
		C391.4,188.3,392.4,188.9,393.3,189.5z M394.2,339.4c-0.9,0.6-1.8,1.3-2.7,2l-0.3-0.5c0.9-0.6,1.8-1.3,2.7-2L394.2,339.4z
		 M385.4,185.3l-0.2,0.5c-1.9-0.8-3.1-1.2-3.1-1.2l0.2-0.5C382.3,184,383.4,184.4,385.4,185.3z M386.9,344.6
		c-0.9,0.6-1.9,1.2-2.8,1.9l-0.3-0.5c0.9-0.6,1.9-1.2,2.8-1.9L386.9,344.6z M379.3,349.5c-0.4,0.3-0.8,0.5-1.3,0.8
		c-0.6,0.3-1.1,0.6-1.7,1l-0.3-0.5c0.5-0.3,1.1-0.6,1.6-1c0.4-0.3,0.8-0.5,1.2-0.8L379.3,349.5z M371.5,353.8c-1,0.5-2.1,1-3.1,1.4
		l-0.2-0.5c1-0.5,2-0.9,3-1.4L371.5,353.8z M363.2,357.3c-1.1,0.4-2.2,0.7-3.2,1l-0.2-0.5c1.1-0.3,2.1-0.6,3.2-1L363.2,357.3z
		 M354.6,336.2c0,0.2,0,0.3,0,0.5h-0.6c0-1.1-0.2-2.2-0.3-3.3l0.6-0.1C354.4,334.2,354.5,335.2,354.6,336.2z M354.2,342.3
		c-0.2,1.1-0.5,2.2-0.8,3.3l-0.5-0.2c0.3-1.1,0.6-2.2,0.8-3.2L354.2,342.3z M354.4,359.5c-1.1,0.2-2.3,0.3-3.4,0.3l0-0.6
		c1.1-0.1,2.2-0.2,3.3-0.3L354.4,359.5z M352.3,328l-0.5,0.3c-0.6-0.9-1.2-1.9-1.9-2.7l0.4-0.4C351.1,326,351.8,327,352.3,328z
		 M351.3,350.9c-0.5,1-1.1,2-1.7,2.9l-0.5-0.3c0.6-0.9,1.2-1.9,1.7-2.9L351.3,350.9z M345.7,322l-0.2,0.5c-1-0.4-2-0.8-3.2-1
		l0.1-0.5C343.6,321.2,344.7,321.5,345.7,322z M346,358.2c-0.3,0.3-0.6,0.6-0.9,0.8c0.1,0,0.2,0,0.3,0l-0.1,0.6
		c-0.3,0-0.6-0.1-0.8-0.1c-0.4,0.3-0.7,0.6-1.1,0.9l-0.3-0.5c0.2-0.2,0.5-0.4,0.7-0.6c-0.6-0.1-1.2-0.2-1.8-0.4l0.1-0.5
		c0.7,0.2,1.4,0.3,2.2,0.4c0.4-0.4,0.8-0.8,1.2-1.1L346,358.2z M336.8,320.4l0,0.6h-0.1c-1.1,0.1-2.2,0.2-3.2,0.5l-0.2-0.5
		C334.4,320.6,335.6,320.4,336.8,320.4L336.8,320.4z M338.5,363.3c-1.1,0.4-2.2,0.8-3.3,1l-0.1-0.5c1.1-0.2,2.1-0.5,3.2-0.9
		L338.5,363.3z M337,356.6l-0.3,0.5c-1-0.5-2-1.1-2.9-1.7l0.3-0.5C335,355.6,336,356.1,337,356.6z M328.8,324.1
		c-0.8,0.7-1.5,1.6-2.1,2.5l-0.5-0.3c0.6-1,1.4-1.9,2.2-2.6L328.8,324.1z M330,351.2l-0.4,0.4c-0.8-0.8-1.4-1.7-2.1-2.7l0.5-0.3
		C328.6,349.5,329.3,350.4,330,351.2z M329.7,364l-0.1,0.6c-1.1-0.1-2.2-0.3-3.3-0.6l0.2-0.5C327.5,363.6,328.6,363.9,329.7,364z
		 M325.6,343.6l-0.5,0.2c-0.4-1.1-0.7-2.2-0.9-3.3l0.5-0.1C324.9,341.5,325.2,342.6,325.6,343.6z M324.6,331.7
		c-0.2,1.1-0.4,2.2-0.4,3.3l-0.6,0c0-1.2,0.2-2.3,0.5-3.4L324.6,331.7z M321.3,361.2l-0.3,0.5c-0.9-0.5-1.9-1.1-2.9-1.8l0.3-0.5
		C319.4,360.1,320.4,360.7,321.3,361.2z M314.1,356l-0.4,0.4c-0.8-0.7-1.6-1.5-2.4-2.4l0.4-0.4C312.5,354.5,313.3,355.3,314.1,356z
		 M308.1,349.5l-0.5,0.3c-0.6-0.8-1.3-1.7-1.9-2.5l-0.1-0.1l0.5-0.3l0.1,0.1C306.8,347.8,307.4,348.7,308.1,349.5z M302.6,342.4
		l-0.5,0.3c-0.7-0.9-1.4-1.8-2.1-2.6l0.4-0.3C301.2,340.6,302,341.4,302.6,342.4z M296.9,335.4l-0.4,0.4c-0.8-0.9-1.5-1.7-2.2-2.5
		l0.4-0.4C295.4,333.7,296.2,334.6,296.9,335.4z M290.8,328.8l-0.4,0.4c-0.8-0.8-1.6-1.6-2.4-2.4l0.4-0.4
		C289.2,327.2,290,328,290.8,328.8z M284.3,322.6l-0.4,0.4c-0.8-0.7-1.7-1.5-2.5-2.2l0.3-0.4C282.6,321.2,283.5,321.9,284.3,322.6z
		 M277.3,317l-0.3,0.5c-0.9-0.6-1.8-1.3-2.7-1.9l0.3-0.5C275.4,315.7,276.4,316.4,277.3,317z M269.8,312.1l-0.3,0.5
		c-1-0.6-2-1.1-2.9-1.6l0.3-0.5C267.8,311,268.8,311.6,269.8,312.1z M261.7,308.1l-0.2,0.5c-1-0.4-2.1-0.8-3.1-1.2l0.2-0.5
		C259.6,307.3,260.7,307.7,261.7,308.1z M253.2,305.4l-0.1,0.5c-1.1-0.3-2.2-0.5-3.3-0.6l0.1-0.6C250.9,304.9,252,305.1,253.2,305.4
		z M244.2,304.3v0.6c-0.5,0-1.1,0-1.6,0c-0.6,0-1.2,0.1-1.7,0.2l-0.1-0.6c0.5-0.1,1.1-0.1,1.7-0.2
		C243.1,304.3,243.6,304.3,244.2,304.3z M235.3,306c-1.1,0.2-2.2,0.5-3.3,0.8l-0.2-0.5c1.1-0.3,2.2-0.6,3.3-0.8L235.3,306z
		 M226.8,308.5c-1.1,0.4-2.1,0.8-3.1,1.3l-0.2-0.5c1-0.5,2.1-0.9,3.1-1.3L226.8,308.5z M218.7,312.4c-1,0.6-1.9,1.1-2.8,1.7
		l-0.3-0.5c0.9-0.6,1.9-1.2,2.9-1.8L218.7,312.4z M211.4,317.4c-0.8,0.7-1.7,1.5-2.5,2.2l-0.4-0.4c0.8-0.8,1.6-1.6,2.5-2.3
		L211.4,317.4z M205.2,323.8c-0.7,0.9-1.4,1.7-2,2.7l-0.5-0.3c0.6-0.9,1.3-1.8,2-2.7L205.2,323.8z M200.3,331.3c-0.5,1-1,2-1.4,3
		l-0.5-0.2c0.5-1,0.9-2.1,1.4-3L200.3,331.3z M196.9,339.5c-0.3,1.1-0.6,2.1-0.9,3.2l-0.5-0.1c0.3-1.1,0.6-2.2,0.9-3.3L196.9,339.5z
		 M195,348.2c-0.2,1.1-0.3,2.2-0.4,3.3l-0.6,0c0.1-1.1,0.2-2.2,0.4-3.3L195,348.2z M196.5,378.2l-0.5,0.1c-0.2-1.1-0.4-2.2-0.6-3.3
		l0.6-0.1C196,375.9,196.3,377.1,196.5,378.2z M195,369.3l-0.6,0.1c-0.2-1.1-0.3-2.2-0.3-3.3l0.6,0
		C194.8,367.1,194.9,368.2,195,369.3z M194.3,357.1c0,1.1,0,2.2,0,3.3h-0.6c0-1.1,0-2.3,0-3.4L194.3,357.1z"/>
</g>
</svg>
